<?xml version="1.0" standalone="no"?>
<!DOCTYPE svg PUBLIC "-//W3C//DTD SVG 20010904//EN"
 "http://www.w3.org/TR/2001/REC-SVG-20010904/DTD/svg10.dtd">
<svg version="1.0" xmlns="http://www.w3.org/2000/svg"
 width="145.000000pt" height="168.000000pt" viewBox="0 0 145.000000 168.000000"
 preserveAspectRatio="xMidYMid meet">

<g transform="translate(0.000000,168.000000) scale(0.100000,-0.100000)"
fill="#000000" stroke="none">
<path d="M368 1447 l-348 -202 0 -190 c0 -135 -4 -195 -12 -203 -9 -9 -9 -15
0 -24 8 -8 12 -69 12 -208 l1 -195 296 -170 c162 -93 321 -184 352 -202 l56
-32 350 202 350 202 3 200 c2 143 6 202 15 208 9 7 9 10 0 14 -10 3 -13 54
-13 201 l0 197 -347 200 c-191 110 -352 201 -357 202 -6 1 -167 -89 -358 -200z
m455 93 c4 -4 -4 -37 -19 -74 l-28 -67 -25 25 -25 26 -26 -25 -27 -26 -28 66
c-15 36 -25 69 -21 72 3 3 27 18 53 33 l48 28 45 -26 c25 -14 49 -28 53 -32z
m-207 -94 c13 -33 24 -65 24 -71 0 -6 -13 -24 -30 -40 l-29 -28 -94 39 c-51
21 -95 43 -96 48 -3 11 169 115 187 113 8 -1 25 -29 38 -61z m356 8 c54 -30
98 -57 98 -58 0 -2 -45 -23 -101 -46 l-100 -43 -34 33 c-37 36 -38 21 9 135 8
19 18 35 22 35 4 0 52 -25 106 -56z m-149 -296 l-72 -73 -3 -95 c-3 -87 -5
-95 -23 -95 -18 0 -20 8 -23 95 l-3 95 -72 73 -72 72 85 85 85 85 85 -85 85
-85 -72 -72z m-381 170 c57 -23 105 -43 107 -45 3 -2 -6 -14 -19 -28 l-23 -25
23 -25 c13 -14 22 -26 19 -28 -8 -6 -184 -77 -191 -77 -4 0 -41 20 -82 44
l-75 45 -3 -81 -3 -80 -59 -24 c-33 -13 -63 -24 -68 -24 -4 0 -8 52 -8 115 0
113 0 115 27 132 49 32 238 142 245 142 4 1 54 -18 110 -41z m807 -34 l131
-76 0 -119 c0 -65 -1 -119 -3 -119 -2 0 -30 11 -63 24 l-59 24 -3 80 -3 80
-80 -45 -80 -46 -92 38 c-51 21 -94 40 -96 42 -3 1 6 14 19 28 l23 25 -23 25
c-13 14 -22 26 -19 28 7 6 204 86 211 87 4 0 66 -34 137 -76z m-637 -171 c33
-32 34 -42 5 -110 l-23 -52 -97 56 c-54 31 -96 57 -94 60 4 4 169 72 176 73 3
0 18 -12 33 -27z m346 -9 c48 -20 88 -37 90 -39 2 -1 -23 -17 -55 -35 -32 -18
-76 -43 -99 -56 l-41 -24 -25 64 -25 64 31 31 c17 17 32 31 34 31 2 0 42 -16
90 -36z m-468 -134 c107 -62 201 -117 208 -122 9 -8 12 -76 12 -279 0 -148 -2
-269 -4 -269 -2 0 -109 60 -237 134 l-234 133 -3 278 -2 277 32 -20 c18 -11
121 -70 228 -132z m723 -401 c-10 -9 -463 -269 -469 -269 -2 0 -4 123 -4 273
l0 272 238 137 237 137 3 -271 c1 -150 -1 -275 -5 -279z m-545 370 c-3 -28 -5
-29 -22 -16 -19 14 -19 15 0 63 19 49 19 49 22 17 2 -18 2 -47 0 -64z m152 0
c0 -4 -9 -13 -20 -19 -19 -10 -20 -8 -20 52 l0 63 20 -44 c11 -24 20 -47 20
-52z m-621 -208 c-1 -137 1 -253 5 -259 3 -6 35 -27 71 -46 35 -20 67 -41 70
-46 7 -12 -13 -80 -23 -80 -4 0 -63 33 -132 73 l-125 72 -3 234 c-1 148 1 238
8 245 10 10 109 55 123 56 4 0 7 -112 6 -249z m1117 225 l59 -24 3 -245 2
-244 -126 -73 c-69 -39 -127 -70 -129 -68 -1 1 -10 19 -18 40 l-15 36 79 46
c79 46 79 46 80 89 0 23 0 138 -1 255 -1 116 0 212 3 212 2 0 30 -11 63 -24z
m-814 -588 c117 -67 218 -121 223 -121 6 0 118 62 249 137 131 75 241 136 242
136 2 0 4 -6 4 -14 0 -8 -101 -72 -227 -145 -192 -110 -235 -131 -270 -131
-35 0 -76 20 -267 131 -128 74 -226 137 -226 145 0 18 -5 21 272 -138z m168
-220 c0 -27 -4 -48 -8 -46 -47 18 -302 176 -302 186 0 7 7 26 15 42 l15 29
140 -81 140 -80 0 -50z m410 166 c7 -19 10 -37 8 -38 -6 -6 -248 -145 -278
-161 l-30 -16 0 50 0 49 138 80 c75 44 140 78 144 76 3 -3 12 -20 18 -40z
m-332 -181 c-3 -50 -6 -58 -23 -58 -17 0 -20 8 -23 58 -3 56 -2 57 23 57 25 0
26 -1 23 -57z"/>
<path d="M665 1290 l-59 -60 59 -60 60 -60 60 60 60 60 -60 60 -60 60 -60 -60z
m95 -95 l-34 -35 -35 35 -35 35 34 35 34 35 35 -35 35 -35 -34 -35z"/>
<path d="M350 931 c0 -14 29 -36 115 -85 63 -36 117 -66 120 -66 3 0 5 8 5 18
0 11 -21 29 -57 50 -32 17 -86 48 -120 67 -57 33 -63 34 -63 16z"/>
<path d="M350 853 c0 -12 19 -29 58 -50 31 -18 85 -49 120 -68 60 -33 63 -34
60 -14 -2 16 -32 38 -108 81 -131 75 -130 74 -130 51z"/>
<path d="M350 781 c0 -14 29 -36 115 -85 63 -36 117 -66 120 -66 3 0 5 8 5 18
0 11 -21 29 -57 50 -32 17 -86 48 -120 67 -57 33 -63 34 -63 16z"/>
<path d="M350 702 c0 -11 21 -29 58 -50 31 -17 85 -48 120 -67 56 -33 62 -34
62 -16 0 14 -29 36 -115 85 -63 36 -117 66 -120 66 -3 0 -5 -8 -5 -18z"/>
<path d="M352 629 c2 -16 33 -39 113 -85 61 -35 113 -64 118 -64 4 0 7 8 7 18
0 11 -24 30 -68 54 -37 21 -91 51 -120 68 -52 30 -53 30 -50 9z"/>
<path d="M978 882 c-80 -45 -118 -73 -118 -84 0 -10 2 -18 5 -18 3 0 57 30
120 66 84 48 115 71 115 85 0 10 -1 19 -2 19 -2 0 -56 -31 -120 -68z"/>
<path d="M975 806 c-80 -46 -111 -69 -113 -85 -3 -21 -2 -21 50 9 29 17 83 47
120 68 44 24 68 43 68 55 0 9 -3 17 -7 17 -5 0 -57 -29 -118 -64z"/>
<path d="M978 732 c-80 -45 -118 -73 -118 -84 0 -10 2 -18 5 -18 3 0 57 30
120 66 84 48 115 71 115 85 0 10 -1 19 -2 19 -2 0 -56 -31 -120 -68z"/>
<path d="M975 656 c-80 -46 -111 -69 -113 -85 -3 -21 -2 -21 50 9 29 17 83 47
120 68 44 24 68 43 68 55 0 9 -3 17 -7 17 -5 0 -57 -29 -118 -64z"/>
<path d="M978 582 c-80 -45 -118 -73 -118 -84 0 -10 2 -18 5 -18 3 0 57 30
120 66 84 48 115 71 115 85 0 10 -1 19 -2 19 -2 0 -56 -31 -120 -68z"/>
</g>
</svg>
