<?xml version="1.0" encoding="utf-8"?>
<svg xmlns="http://www.w3.org/2000/svg" viewBox="20.1806 14.1051 973.0895 614.2017" width="973.0895pt" height="614.2017pt"><defs><linearGradient gradientUnits="userSpaceOnUse" x1="4969.331" y1="0" x2="4969.331" y2="6138.949" id="gradient-1" gradientTransform="matrix(1, 0, 0, 0.690991, 60.63447, 1663.117073)"><stop offset="0" style="stop-color: rgb(0% 0% 0%)"/><stop offset="1" style="stop-color: rgb(204, 38, 38);"/></linearGradient></defs><path d="M 9931.18 -0.038 L 9932.7 -0.015 L 4965 0 L 9931.18 -0.038 Z M 9930.1 -3.068 L 9930.15 -0.941 L 9930.46 3139.64 L 9930.1 -3.068 Z M 1498 6130 C 1429 6109 1341 6030 1313 5962 C 1280 5882 1302 5762 1363 5698 L 1389 5670 L 1845 5670 L 1868 5706 C 1976 5872 1909 6071 1728 6125 C 1673 6141 1544 6144 1498 6130 Z M 1800 5530 L 1430 5530 L 1430 5320 L 1800 5320 L 1800 5530 Z M 8601 5259 C 8390 5259 8310 5244 8212 5188 C 8136 5145 8042 5049 8002 4973 C 7943 4861 7930 4783 7923 4520 C 7917 4244 7933 3818 7954 3744 C 8004 3560 8164 3410 8370 3354 C 8465 3328 8683 3331 8810 3359 C 8931 3386 8996 3419 9080 3497 C 9242 3647 9270 3761 9269 4275 C 9269 4619 9256 4793 9226 4883 C 9167 5057 9036 5184 8856 5239 C 8797 5257 8763 5260 8601 5259 Z M 3980 5240 L 3590 5240 L 3590 3360 L 3783 3362 L 3975 3365 L 3978 3758 L 3980 4150 L 4440 4150 L 4440 3360 L 4830 3360 L 4830 5240 L 4440 5240 L 4440 4480 L 3980 4480 L 3980 5240 Z M 6150 5240 L 5130 5240 L 5132 4303 L 5135 3365 L 5648 3362 L 6160 3360 L 6160 3690 L 5841 3690 C 5665 3690 5520 3693 5518 3698 C 5516 3702 5516 3802 5518 3921 L 5521 4138 L 5795 4145 L 6070 4152 L 6070 4470 L 5801 4470 C 5652 4470 5529 4474 5526 4478 C 5523 4483 5520 4581 5520 4696 L 5518 4905 L 5834 4908 L 6150 4910 L 6150 5240 Z M 6833 5238 L 6430 5242 L 6430 3360 L 6810 3360 L 6810 4030 L 6873 4030 C 6907 4030 6951 4027 6972 4024 L 7008 4018 L 7093 3796 C 7140 3675 7197 3527 7220 3468 L 7262 3360 L 7476 3360 C 7594 3360 7690 3362 7690 3364 C 7690 3366 7618 3526 7530 3720 C 7442 3915 7370 4077 7370 4080 C 7370 4084 7396 4103 7428 4123 C 7589 4222 7650 4364 7650 4635 C 7650 4855 7613 4976 7515 5079 C 7456 5141 7380 5187 7290 5216 C 7243 5231 7179 5234 6833 5238 Z M 1800 5200 L 1430 5200 L 1430 4910 L 1800 4910 L 1800 5200 Z M 1800 4785 C 1401 4786 980 4785 864 4783 L 652 4780 L 646 4749 C 638 4707 639 4565 648 4515 C 655 4480 659 4475 680 4478 C 694 4480 739 4497 780 4517 L 855 4552 L 2403 4538 L 2473 4504 C 2526 4479 2547 4473 2557 4481 C 2567 4490 2570 4527 2570 4626 C 2570 4754 2569 4760 2548 4772 C 2530 4782 2362 4785 1800 4785 Z M 1538 4420 L 1260 4420 L 1259 4168 C 1258 3855 1261 3215 1263 3214 C 1264 3214 1328 3220 1405 3229 L 1545 3245 L 1548 3450 C 1550 3563 1548 3827 1545 4038 L 1538 4420 Z M 1947 4420 L 1815 4420 C 1743 4420 1680 4417 1677 4413 C 1673 4410 1670 4145 1670 3825 L 1670 3243 L 1806 3230 C 1921 3220 1944 3220 1951 3231 C 1961 3248 1963 3786 1953 4158 L 1947 4420 Z M 1134 3839 C 1129 3839 1103 3824 1075 3805 C 1048 3787 922 3706 795 3625 C 669 3544 505 3439 431 3391 L 298 3305 L 338 3302 C 401 3297 1115 3372 1128 3385 C 1131 3388 1136 3492 1138 3615 C 1141 3741 1139 3840 1134 3839 Z M 2079 3820 C 2065 3820 2076 3401 2090 3387 C 2094 3382 2182 3370 2285 3359 C 2681 3319 2893 3300 2898 3304 C 2907 3313 2890 3327 2818 3369 C 2748 3411 2205 3747 2128 3796 C 2107 3809 2085 3820 2079 3820 Z M 1083 3239 C 957 3235 367 3179 357 3170 C 347 3161 370 3114 505 2865 C 683 2537 700 2508 715 2520 C 744 2544 1130 3202 1130 3227 C 1130 3236 1116 3240 1083 3239 Z M 2087 3233 C 2084 3228 2105 3185 2132 3135 C 2203 3007 2482 2516 2487 2510 C 2495 2501 2529 2550 2584 2649 C 2713 2883 2850 3143 2850 3155 C 2850 3163 2838 3171 2823 3174 C 2780 3182 2545 3208 2350 3225 C 2154 3242 2093 3244 2087 3233 Z M 1612 3179 C 1603 3179 1559 3167 1515 3153 C 1450 3133 1415 3128 1330 3128 L 1225 3128 L 1021 2778 C 909 2586 813 2415 807 2400 C 798 2376 803 2362 849 2277 C 879 2224 959 2092 1029 1983 L 1156 1785 L 1605 1783 L 2055 1780 L 2154 1938 C 2209 2024 2292 2155 2339 2229 L 2423 2362 L 2386 2439 C 2348 2514 2229 2724 2073 2990 L 1994 3125 L 1895 3126 C 1815 3126 1778 3132 1712 3153 C 1666 3168 1621 3180 1612 3179 Z M 2993 3140 C 2986 3139 2789 2780 2627 2473 L 2588 2401 L 2780 2123 C 2886 1970 2978 1838 2986 1830 C 2998 1818 3000 1913 3000 2478 C 3000 2842 2997 3140 2993 3140 Z M 216 3120 C 202 3120 196 2187 209 1935 L 215 1816 L 281 1905 C 339 1985 559 2302 603 2371 C 620 2396 618 2400 460 2689 C 372 2850 281 3013 259 3051 C 237 3089 218 3120 216 3120 Z M 4966 2900 C 4901 2873 4873 2853 4815 2796 C 4772 2753 4734 2703 4718 2669 C 4670 2569 4665 2511 4665 2055 C 4665 1592 4671 1538 4730 1420 C 4764 1353 4866 1252 4938 1216 C 5084 1142 5342 1131 5527 1191 C 5652 1232 5758 1326 5819 1452 C 5854 1525 5862 1632 5863 2079 C 5865 2549 5865 2551 5799 2682 C 5724 2830 5573 2924 5368 2950 C 5213 2969 5098 2955 4966 2900 Z M 7806 2935 C 7593 2881 7454 2730 7429 2526 C 7423 2474 7420 2262 7422 1987 L 7425 1533 L 7468 1446 C 7539 1303 7646 1212 7785 1175 C 7856 1157 8112 1154 8192 1171 C 8310 1196 8434 1289 8492 1396 C 8543 1491 8551 1542 8557 1843 L 8563 2120 L 8294 2118 L 8025 2115 L 8019 1861 L 8225 1855 L 8224 1754 C 8223 1690 8217 1636 8206 1603 C 8186 1544 8133 1486 8082 1469 C 8040 1455 7930 1464 7890 1485 C 7854 1504 7802 1564 7793 1598 C 7788 1613 7785 1821 7785 2061 L 7785 2496 L 7813 2538 C 7828 2561 7859 2594 7883 2611 C 7924 2641 7928 2642 8013 2638 C 8080 2635 8106 2629 8128 2614 C 8165 2587 8200 2515 8200 2465 C 8200 2375 8190 2380 8383 2380 L 8553 2380 L 8546 2488 C 8542 2547 8532 2618 8524 2645 C 8488 2763 8368 2881 8242 2921 C 8153 2949 7896 2958 7806 2935 Z M 4480 2920 L 3590 2920 L 3590 2081 C 3590 1620 3593 1228 3596 1211 L 3603 1180 L 3937 1180 L 3943 1383 C 3947 1494 3950 1647 3950 1723 L 3950 1860 L 4397 1860 L 4402 1996 C 4405 2071 4405 2141 4403 2151 C 4398 2169 4385 2170 4174 2170 L 3950 2170 L 3950 2620 L 4480 2620 L 4480 2920 Z M 6412 2920 L 6110 2920 L 6112 2053 L 6115 1185 L 6286 1182 L 6457 1180 L 6463 1397 C 6467 1517 6470 1657 6470 1708 L 6470 1801 L 6551 1798 L 6633 1795 L 6719 1575 C 6866 1199 6869 1193 6893 1186 C 6905 1183 6989 1180 7079 1180 L 7242 1180 L 7236 1206 C 7229 1234 7142 1436 7030 1684 C 6991 1771 6960 1843 6962 1844 C 6964 1846 6981 1856 7001 1868 C 7055 1901 7128 1984 7156 2044 C 7190 2118 7205 2307 7190 2484 C 7178 2646 7151 2709 7061 2792 C 6982 2866 6908 2899 6800 2911 C 6753 2916 6579 2920 6412 2920 Z M 9720 2920 L 8807 2920 L 8813 2678 C 8817 2545 8820 2154 8820 1808 L 8820 1180 L 9730 1180 L 9730 1490 L 9448 1492 L 9165 1495 L 9162 1702 L 9160 1910 L 9402 1912 L 9645 1915 L 9648 2062 L 9651 2210 L 9408 2212 L 9165 2215 L 9165 2615 L 9436 2618 L 9707 2620 L 9714 2658 C 9717 2678 9720 2746 9720 2808 L 9720 2920 Z M 694 2270 C 689 2270 463 1957 385 1842 C 347 1786 320 1737 324 1733 C 332 1725 998 1764 1007 1774 C 1014 1781 972 1851 817 2088 C 752 2188 696 2270 694 2270 Z M 2520 2260 C 2508 2260 2448 2174 2323 1980 C 2217 1817 2196 1781 2202 1775 C 2208 1769 2587 1740 2749 1733 C 2880 1728 2902 1729 2895 1741 C 2876 1774 2749 1957 2643 2103 C 2580 2189 2525 2260 2520 2260 Z M 1600 1650 C 1397 1650 1230 1648 1230 1645 C 1230 1636 1477 1226 1548 1116 C 1601 1034 1614 1020 1624 1031 C 1635 1043 1926 1543 1959 1607 C 1965 1619 1970 1633 1970 1639 C 1970 1647 1855 1650 1600 1650 Z M 785 1629 C 714 1626 592 1621 515 1620 C 438 1619 366 1615 356 1611 C 339 1604 342 1600 381 1573 C 405 1557 524 1486 645 1415 C 766 1345 1010 1202 1188 1098 C 1366 993 1513 910 1515 912 C 1522 918 1126 1583 1092 1623 C 1075 1642 1030 1643 785 1629 Z M 2220 1640 L 2125 1640 L 1988 1412 C 1828 1146 1690 912 1690 905 C 1690 898 1759 937 2065 1116 C 2807 1550 2886 1597 2877 1606 C 2875 1608 2747 1617 2594 1625 C 2440 1633 2272 1640 2220 1640 Z M 1346 867 L 1277 902 L 1283 818 C 1290 727 1322 614 1371 517 C 1402 456 1550 228 1590 181 C 1617 150 1626 158 1715 295 C 1827 466 1869 546 1907 658 C 1939 755 1962 900 1945 900 C 1939 900 1819 836 1654 744 L 1614 721 L 1514 776 C 1460 807 1384 847 1346 867 Z M 8715 4911 C 8763 4889 8815 4833 8844 4771 C 8864 4727 8865 4708 8868 4303 C 8871 3886 8871 3881 8849 3838 C 8790 3721 8729 3679 8607 3672 C 8508 3666 8457 3685 8400 3746 C 8322 3830 8325 3812 8325 4300 L 8325 4735 L 8348 4782 C 8374 4834 8458 4916 8493 4923 C 8556 4935 8677 4929 8715 4911 Z M 6810 4913 L 6958 4907 C 7123 4901 7161 4891 7202 4842 C 7244 4791 7253 4750 7248 4611 C 7244 4459 7228 4419 7159 4380 C 7119 4357 7103 4355 6963 4352 L 6810 4348 L 6810 4913 Z M 1489 2763 C 1610 2660 1579 2554 1361 2317 L 1295 2245 L 1565 2235 L 1568 2178 L 1571 2120 L 1100 2120 L 1100 2158 C 1100 2204 1119 2232 1251 2380 C 1361 2504 1393 2545 1416 2593 C 1432 2627 1432 2630 1416 2655 C 1406 2670 1383 2688 1364 2696 C 1335 2708 1325 2708 1296 2696 C 1277 2688 1252 2668 1239 2651 C 1218 2623 1211 2620 1158 2620 C 1103 2620 1100 2621 1100 2645 C 1100 2722 1185 2803 1285 2823 C 1345 2834 1438 2807 1489 2763 Z M 2044 2741 C 2129 2618 2144 2385 2074 2249 C 2028 2158 1940 2112 1834 2126 C 1745 2137 1690 2185 1654 2285 C 1640 2324 1636 2365 1636 2470 C 1636 2586 1639 2613 1658 2661 C 1682 2722 1725 2772 1779 2800 C 1860 2843 1995 2813 2044 2741 Z M 1830 2683 C 1777 2639 1760 2590 1760 2475 C 1760 2356 1771 2312 1809 2271 C 1866 2210 1938 2240 1971 2337 C 1988 2385 1988 2541 1971 2598 C 1965 2621 1947 2654 1932 2670 C 1892 2712 1868 2715 1830 2683 Z M 5266 2648 C 5356 2644 5420 2608 5464 2536 L 5494 2488 L 5503 2176 C 5517 1675 5501 1565 5402 1495 C 5367 1471 5347 1465 5289 1462 C 5200 1457 5145 1477 5092 1534 C 5025 1607 5025 1607 5025 2066 L 5025 2476 L 5055 2535 C 5081 2586 5093 2599 5140 2623 C 5188 2647 5204 2650 5266 2648 Z M 6473 2623 L 6584 2617 C 6717 2609 6765 2597 6801 2561 C 6839 2523 6850 2473 6850 2345 C 6849 2128 6811 2091 6588 2082 L 6460 2077 L 6460 2146 C 6460 2184 6463 2307 6467 2419 L 6473 2623 Z" style="fill: url(&quot;#gradient-1&quot;);" id="object-0" transform="matrix(0.10000000149011612, 0, 0, -0.10000000149011612, 0, 628)"/></svg>