<?xml version="1.0" standalone="no"?>
<!DOCTYPE svg PUBLIC "-//W3C//DTD SVG 20010904//EN"
 "http://www.w3.org/TR/2001/REC-SVG-20010904/DTD/svg10.dtd">
<svg version="1.0" xmlns="http://www.w3.org/2000/svg"
 width="550.000000pt" height="572.000000pt" viewBox="0 0 550.000000 572.000000"
 preserveAspectRatio="xMidYMid meet">

<g transform="translate(0.000000,572.000000) scale(0.100000,-0.100000)"
fill="#000000" stroke="none">
<path d="M2345 5664 c-253 -21 -584 -103 -823 -203 -122 -51 -311 -152 -419
-225 -115 -77 -222 -170 -210 -182 4 -5 70 13 145 38 75 26 166 55 202 64 62
15 84 19 250 44 114 16 396 14 545 -5 423 -53 850 -216 1120 -427 71 -55 209
-193 260 -258 102 -131 191 -312 230 -465 11 -42 20 -130 24 -220 7 -148 7
-151 39 -197 17 -25 63 -69 102 -97 76 -56 105 -98 96 -142 -10 -51 -34 -76
-98 -99 -81 -29 -116 -69 -182 -205 -64 -134 -70 -149 -100 -296 -13 -64 -36
-141 -50 -171 -30 -63 -32 -85 -11 -115 21 -31 96 -57 137 -48 66 14 142 10
181 -9 20 -10 37 -23 37 -29 0 -6 -27 -36 -60 -67 -53 -49 -60 -60 -60 -93 0
-42 45 -100 108 -139 l36 -22 -36 -16 c-84 -37 -87 -66 -22 -186 61 -112 68
-176 29 -249 -106 -197 -401 -456 -712 -623 -476 -255 -1007 -325 -1588 -207
-450 91 -830 256 -1368 593 -60 37 -100 39 -105 5 -4 -27 13 -61 102 -198 150
-234 306 -415 498 -580 371 -319 820 -493 1463 -567 69 -8 248 -13 480 -13
309 0 389 3 485 18 578 91 1041 288 1421 606 129 107 309 297 404 424 372 499
564 1109 582 1847 10 395 -31 705 -133 1020 -33 103 -116 312 -134 335 -4 6
-24 42 -45 80 -319 594 -970 1039 -1765 1205 -284 60 -392 71 -710 75 -162 1
-317 1 -345 -1z m475 -88 c351 -16 838 -150 1200 -330 632 -316 1036 -765
1231 -1370 33 -100 30 -110 -31 -100 -69 11 -124 38 -199 98 -188 153 -295
213 -438 247 -80 19 -112 20 -368 17 -302 -3 -304 -3 -351 51 -12 14 -35 56
-50 93 -15 37 -35 75 -45 84 -16 14 -18 14 -28 -5 -16 -28 -14 -126 3 -166 16
-38 60 -69 121 -87 24 -6 137 -12 280 -13 265 -2 348 -14 462 -65 82 -37 125
-71 178 -140 58 -75 98 -101 245 -156 137 -52 205 -91 264 -152 36 -38 39 -45
52 -144 59 -447 -5 -1078 -153 -1502 -39 -114 -107 -274 -154 -368 -61 -121
-73 -134 -154 -172 -92 -43 -108 -66 -130 -195 -17 -95 -19 -98 -72 -157 -30
-32 -52 -50 -48 -39 4 11 18 73 31 137 13 65 31 135 39 155 24 57 79 107 157
143 114 53 153 102 204 261 14 46 38 103 51 127 14 23 22 49 19 58 -5 13 -9
13 -37 -3 -46 -27 -64 -59 -83 -144 -29 -130 -102 -217 -238 -282 -42 -20 -87
-50 -101 -67 -36 -42 -64 -125 -76 -218 -17 -132 -77 -278 -144 -349 -29 -31
-125 -76 -287 -136 -157 -58 -279 -137 -398 -256 -72 -71 -77 -75 -186 -112
-62 -21 -169 -52 -237 -69 -135 -34 -212 -37 -349 -10 -79 16 -522 19 -855 6
-302 -11 -406 -1 -588 55 -135 41 -174 60 -84 39 187 -42 228 -43 937 -43 711
1 751 3 880 45 71 23 128 74 248 221 67 83 144 149 232 199 137 79 348 240
406 309 66 79 119 206 149 359 27 142 27 141 143 237 59 49 130 106 157 127
50 37 88 89 147 199 37 69 110 138 197 187 202 114 218 128 246 224 9 28 20
121 25 206 6 85 15 175 20 200 13 64 12 90 -3 90 -24 0 -39 -50 -63 -205 -32
-209 -54 -326 -65 -347 -15 -28 -69 -63 -149 -98 -99 -43 -149 -79 -191 -135
-144 -194 -253 -312 -364 -392 -82 -60 -126 -133 -154 -260 -12 -54 -27 -120
-33 -146 -28 -126 -193 -289 -429 -423 -132 -75 -176 -113 -285 -241 -124
-145 -178 -194 -254 -233 -107 -54 -180 -63 -470 -55 -169 4 -338 2 -500 -7
-135 -7 -344 -13 -465 -13 -255 1 -249 0 -595 117 -185 63 -225 80 -289 125
-41 29 -72 53 -68 53 14 0 199 -71 317 -123 117 -50 173 -68 310 -97 84 -19
414 -24 715 -11 149 6 394 16 545 21 151 6 300 16 330 22 135 26 274 132 420
318 67 87 184 188 358 313 269 191 306 231 317 337 18 170 52 245 143 312 100
74 226 207 295 313 80 125 114 157 252 241 157 96 177 121 189 245 4 36 18
102 32 145 13 43 24 88 24 99 -1 40 -28 -14 -60 -119 -63 -206 -82 -237 -178
-281 -72 -33 -206 -167 -287 -290 -78 -117 -151 -190 -250 -250 -125 -75 -155
-97 -167 -119 -6 -11 -11 -74 -12 -140 -1 -110 -4 -126 -29 -180 -36 -77 -143
-183 -306 -301 -68 -49 -152 -110 -185 -135 -34 -24 -119 -103 -191 -173 -165
-164 -244 -228 -328 -268 -60 -28 -82 -32 -200 -40 -725 -46 -1245 -56 -1424
-27 -121 20 -228 55 -310 99 -130 71 -216 110 -324 145 -103 33 -177 69 -166
80 2 2 19 -2 38 -10 19 -8 63 -19 99 -26 100 -18 209 -52 400 -125 270 -103
337 -120 520 -134 141 -10 247 -6 495 19 280 28 461 40 595 40 132 1 180 10
265 50 76 36 152 109 242 230 75 101 159 186 233 237 25 17 110 66 190 109 91
49 165 97 198 128 70 66 115 160 138 286 29 162 31 169 92 233 52 54 178 162
286 243 65 50 109 101 103 118 -13 33 -92 11 -107 -30 -25 -66 -169 -200 -313
-294 -61 -39 -69 -48 -82 -93 -8 -28 -15 -63 -15 -77 0 -50 -32 -213 -51 -256
-22 -52 -86 -124 -148 -166 -24 -17 -89 -53 -145 -81 -187 -92 -271 -162 -365
-301 -79 -117 -175 -203 -284 -254 -94 -45 -124 -50 -342 -56 -237 -8 -425
-20 -630 -43 -288 -31 -553 2 -785 98 -162 67 -265 100 -404 128 -123 25 -159
37 -236 77 -93 49 -162 101 -180 134 -7 13 10 7 57 -22 210 -127 284 -156 548
-214 66 -14 186 -48 267 -75 176 -59 348 -97 478 -105 77 -6 112 -3 185 14
151 35 238 43 545 51 292 8 296 9 382 38 48 17 113 46 144 64 82 49 177 140
223 213 68 108 168 190 356 291 197 106 235 139 292 252 32 65 36 84 45 195
14 171 18 178 128 230 49 23 90 46 90 50 0 3 -35 5 -77 2 -131 -7 -159 -45
-173 -231 -5 -65 -13 -132 -18 -148 -19 -62 -66 -140 -115 -193 -58 -61 -107
-92 -185 -117 -123 -39 -313 -206 -380 -333 -54 -102 -188 -182 -399 -238 -91
-24 -115 -26 -348 -28 -263 -3 -313 -8 -540 -62 -92 -22 -124 -25 -195 -20
-70 4 -303 54 -328 70 -12 7 -310 93 -421 121 -190 48 -348 120 -531 241 -124
82 -198 145 -95 81 236 -147 525 -265 815 -333 63 -15 147 -39 185 -54 150
-60 204 -72 341 -77 114 -5 147 -2 255 20 68 14 160 28 204 31 44 4 116 10
160 16 44 5 141 14 215 20 174 13 271 38 395 100 102 51 158 91 256 186 31 29
85 75 120 100 35 26 98 75 139 109 85 70 98 78 191 114 76 30 127 71 175 142
54 81 59 116 33 222 -12 50 -22 106 -21 124 2 46 37 121 75 161 35 37 69 48
176 58 92 9 111 24 111 92 l-1 47 -28 -33 c-15 -17 -31 -32 -35 -32 -11 0
-116 74 -116 81 0 13 106 27 145 20 22 -4 62 -20 87 -35 32 -18 54 -25 68 -21
30 9 23 47 -10 57 -184 52 -179 51 -266 38 -46 -6 -87 -9 -92 -6 -5 3 -31 7
-56 8 -47 1 -77 18 -34 18 13 1 57 5 98 10 49 5 102 4 153 -3 74 -11 80 -10
121 12 l43 24 80 -37 c86 -39 114 -44 131 -23 9 10 2 16 -32 25 -24 6 -70 27
-102 47 -69 41 -76 42 -146 14 -46 -18 -70 -20 -185 -17 -73 2 -133 6 -133 9
0 3 11 16 24 28 20 19 32 22 58 17 93 -19 146 -18 229 4 100 26 125 22 222
-30 81 -45 122 -50 161 -19 36 29 76 93 76 123 0 23 -17 34 -75 50 -27 7 -49
-8 -42 -28 5 -13 15 -15 47 -10 45 7 60 -9 40 -45 -30 -56 -114 -65 -222 -22
-106 41 -136 44 -263 26 -112 -16 -113 -16 -164 6 l-52 22 -27 -25 c-28 -25
-94 -68 -106 -68 -17 0 54 74 96 100 99 62 102 121 8 176 -30 17 -66 35 -78
39 -38 11 -24 -27 17 -47 19 -9 38 -23 42 -30 15 -23 9 -68 -11 -88 -25 -25
-61 -25 -135 0 -67 23 -106 25 -186 8 -50 -10 -60 -9 -84 6 -22 14 -26 23 -20
44 3 15 14 38 24 52 34 47 42 70 66 191 17 87 32 133 53 167 16 26 44 81 63
122 43 98 66 127 104 140 47 16 112 75 125 116 20 59 5 116 -48 185 -137 178
-149 205 -182 406 -35 216 -115 421 -233 599 -135 203 -294 345 -552 492 -253
144 -622 241 -992 259 -70 3 -123 10 -123 16 0 11 264 2 375 -13 135 -19 273
-50 396 -90 146 -46 370 -145 449 -196 30 -20 74 -50 98 -65 23 -16 45 -29 48
-29 10 0 164 -128 228 -189 32 -31 76 -79 97 -108 59 -79 87 -101 174 -134
117 -46 147 -63 212 -122 97 -90 153 -97 413 -52 214 37 267 30 332 -41 29
-33 84 -64 112 -64 31 0 16 41 -32 89 -44 44 -55 50 -120 61 -48 9 -128 11
-251 8 -206 -6 -260 1 -316 41 -22 15 -92 53 -157 84 -126 61 -188 113 -296
248 -113 143 -269 269 -452 366 -36 19 -81 43 -100 53 -101 55 -256 122 -340
148 -170 53 -279 67 -535 67 -126 0 -266 -4 -310 -8 -44 -5 -77 -6 -74 -3 14
14 279 36 429 36 464 -1 833 -105 1173 -333 110 -73 120 -81 282 -231 50 -46
90 -73 232 -153 61 -34 141 -82 176 -107 83 -56 125 -70 198 -63 92 8 169 70
169 135 0 46 -49 41 -130 -13 -29 -19 -63 -35 -76 -35 -38 0 -101 29 -223 102
-62 38 -134 80 -160 93 -26 13 -88 60 -137 105 -94 87 -114 102 -264 203 -150
100 -244 154 -406 231 -204 97 -325 120 -634 120 -235 1 -386 -14 -578 -55
-52 -11 -100 -18 -108 -15 -10 4 -12 2 -8 -6 5 -7 0 -9 -14 -6 -12 4 -22 3
-22 -1 0 -6 -122 -33 -127 -27 -1 1 48 19 110 39 308 101 623 145 932 132 128
-6 338 -33 425 -55 19 -5 66 -17 104 -25 38 -9 78 -20 90 -25 11 -4 77 -25
146 -45 216 -64 414 -143 615 -245 174 -89 281 -157 455 -287 169 -128 206
-169 351 -401 57 -90 118 -184 136 -208 83 -108 85 -1 3 164 -163 328 -471
590 -983 837 -583 281 -1224 385 -1817 295 -186 -28 -295 -54 -520 -126 -9 -3
-11 -2 -5 4 23 20 259 94 420 131 190 43 494 74 645 64 25 -1 97 -5 160 -7z
m-1063 -232 c-3 -3 -12 -4 -19 -1 -8 3 -5 6 6 6 11 1 17 -2 13 -5z m2203
-3150 c25 -8 78 -36 118 -63 l74 -49 -54 -12 c-70 -17 -127 -51 -178 -106 -23
-25 -43 -44 -44 -42 -25 39 -36 60 -36 71 0 17 131 84 183 93 24 4 37 12 37
22 0 12 -10 14 -55 9 -30 -3 -68 -2 -85 3 -30 9 -120 78 -120 92 0 11 105 -1
160 -18z"/>
<path d="M2280 5484 c-81 -8 -324 -44 -355 -53 -48 -15 0 -13 85 3 232 44 572
46 775 6 154 -30 271 -64 343 -100 33 -16 66 -30 72 -30 6 0 28 -11 50 -25 22
-14 42 -25 45 -25 3 0 53 -33 111 -72 58 -40 120 -82 138 -92 17 -11 47 -31
66 -45 90 -67 384 -243 480 -288 66 -31 137 -53 168 -53 28 0 82 44 82 67 0
17 -39 38 -145 75 -156 56 -258 107 -422 214 -181 118 -276 173 -360 208 -35
14 -86 37 -115 50 -29 13 -78 32 -108 41 -30 9 -82 25 -115 36 -169 53 -346
79 -570 83 -99 2 -200 2 -225 0z"/>
<path d="M1810 5408 c-25 -6 -40 -12 -35 -14 6 -2 35 3 65 10 64 16 37 19 -30
4z"/>
<path d="M4156 3989 c-27 -21 -34 -43 -17 -54 6 -3 58 -14 116 -25 125 -23
207 -57 292 -122 120 -92 226 -135 383 -154 48 -5 60 -12 97 -50 56 -58 78
-128 78 -251 l0 -92 -103 -203 c-101 -199 -103 -205 -113 -298 -16 -161 -43
-243 -108 -324 -30 -38 -40 -66 -22 -66 14 0 96 93 125 143 32 53 50 118 66
226 17 118 35 162 96 232 67 76 99 137 119 221 40 172 -7 403 -97 471 -34 26
-57 33 -188 63 -118 26 -246 92 -292 149 -34 43 -94 75 -169 90 -41 8 -107 26
-148 40 -41 14 -78 25 -81 25 -4 0 -19 -9 -34 -21z"/>
<path d="M3892 3804 c-49 -34 -68 -117 -33 -148 26 -24 73 -29 166 -18 92 11
178 2 261 -28 31 -10 93 -24 138 -30 164 -22 237 -60 284 -149 35 -64 72 -105
72 -79 0 24 -40 149 -61 189 -10 20 -32 48 -49 63 -27 23 -41 26 -101 26 -85
0 -130 18 -186 72 -41 41 -42 41 -100 35 -32 -4 -70 -9 -85 -13 -20 -5 -31 0
-48 19 -19 22 -26 24 -48 16 -21 -8 -38 -3 -97 26 -82 40 -83 40 -113 19z"/>
<path d="M5150 3618 c0 -6 21 -56 46 -110 l46 -99 8 -152 c8 -163 5 -177 -39
-212 -100 -77 -195 -196 -189 -236 3 -21 3 -20 25 3 70 75 125 128 172 167 80
66 101 119 101 251 0 200 -34 312 -112 369 -45 33 -58 38 -58 19z"/>
<path d="M4190 3507 c8 -8 38 -22 65 -32 64 -23 121 -59 163 -103 39 -39 102
-164 102 -200 0 -39 -24 -10 -50 59 -25 70 -76 131 -134 162 -33 17 -58 21
-121 20 -134 -1 -191 -41 -187 -131 1 -25 4 -53 7 -63 4 -11 -10 -31 -41 -61
-29 -28 -44 -50 -39 -57 5 -9 14 -6 31 10 l24 22 50 -47 c69 -65 126 -88 232
-94 105 -5 144 10 228 89 30 29 66 59 80 66 25 14 24 14 -12 11 l-37 -4 -7 51
c-14 108 -89 217 -181 264 -45 22 -138 51 -167 51 -18 0 -18 -2 -6 -13z m68
-172 c18 -39 14 -79 -11 -116 -30 -44 -59 -48 -93 -12 -23 25 -25 34 -22 81 5
61 16 72 74 72 34 0 43 -4 52 -25z m-155 -22 c-20 -99 6 -175 72 -208 106 -52
203 12 205 134 l0 45 25 -35 c14 -19 28 -45 31 -59 4 -14 17 -35 31 -46 l25
-22 -77 -38 c-102 -51 -172 -53 -257 -10 -31 16 -69 41 -84 57 -24 25 -26 32
-16 54 7 14 12 52 12 83 0 53 11 82 32 82 5 0 5 -17 1 -37z"/>
<path d="M4572 3108 c-5 -7 -22 -38 -36 -69 -62 -138 -163 -151 -391 -54 -57
25 -111 42 -120 39 -28 -11 -10 -139 21 -151 8 -3 32 2 53 12 33 15 51 15 138
7 168 -17 293 15 361 93 37 42 44 99 15 121 -23 17 -28 17 -41 2z"/>
<path d="M4391 2831 c-55 -14 -73 -40 -73 -105 -1 -79 21 -100 95 -97 31 1 42
19 33 56 -6 25 -39 35 -51 15 -14 -23 -25 -7 -25 35 0 40 3 47 27 56 86 32
193 -66 152 -140 -18 -33 -93 -71 -139 -71 -59 0 -139 29 -177 64 -33 30 -36
37 -41 104 -5 79 -12 85 -57 50 -24 -19 -27 -26 -21 -65 21 -156 242 -251 399
-171 91 46 104 173 24 247 -29 26 -91 35 -146 22z"/>
<path d="M5091 2189 c-128 -64 -188 -119 -241 -225 -82 -161 -174 -258 -323
-339 -115 -63 -129 -85 -157 -251 -25 -145 -41 -196 -93 -298 -80 -155 -175
-230 -407 -322 -163 -64 -238 -122 -370 -284 -43 -53 -98 -111 -123 -130 -77
-58 -55 -69 38 -20 87 46 179 124 250 211 91 114 128 140 352 253 261 132 331
226 393 528 34 168 48 187 210 288 140 86 219 175 305 346 30 59 122 145 197
183 72 36 114 73 103 90 -12 20 -52 11 -134 -30z"/>
<path d="M5097 2040 c-93 -75 -139 -128 -211 -250 -73 -121 -117 -166 -216
-219 -114 -61 -131 -84 -185 -258 -85 -272 -109 -330 -170 -402 -68 -83 -139
-125 -305 -185 -177 -64 -226 -98 -271 -186 -13 -25 -38 -67 -56 -95 -65 -98
1 -60 152 86 82 80 105 96 265 179 319 168 319 168 430 517 70 218 71 219 193
276 91 42 137 92 189 206 58 127 91 174 159 221 75 53 96 74 110 118 20 60 -2
58 -84 -8z"/>
<path d="M1281 4711 c-6 -10 -13 -37 -17 -60 -9 -54 -17 -58 -37 -16 -11 23
-24 35 -37 35 -26 0 -26 -29 0 -63 11 -14 20 -28 20 -31 0 -3 -21 -6 -47 -6
-27 0 -55 -5 -63 -10 -13 -9 -12 -12 4 -25 11 -8 30 -15 42 -15 35 0 36 -14 4
-34 -37 -21 -56 -54 -41 -69 8 -8 22 -2 50 21 22 18 44 32 49 32 15 0 22 -27
22 -80 0 -49 14 -75 23 -43 3 10 8 39 12 66 7 55 32 64 60 21 22 -34 53 -64
65 -64 16 0 11 33 -10 68 -29 47 -26 55 18 49 43 -5 72 6 72 29 0 20 -48 37
-87 30 -45 -7 -41 7 10 37 57 34 75 55 54 63 -15 5 -69 -19 -114 -52 -21 -15
-23 -15 -29 0 -3 9 -1 30 5 47 16 46 14 89 -4 89 -8 0 -19 -8 -24 -19z"/>
<path d="M2480 4471 c-15 -29 -12 -65 9 -121 11 -27 15 -50 11 -50 -5 0 -28
18 -52 40 -55 50 -101 75 -122 67 -32 -12 10 -66 99 -127 71 -49 59 -69 -43
-71 -83 -1 -107 -10 -107 -39 0 -31 39 -40 125 -28 35 4 65 6 68 3 3 -2 -12
-23 -32 -45 -43 -48 -49 -90 -12 -90 17 0 37 16 67 51 l43 51 25 -78 c25 -74
50 -108 68 -90 4 4 7 39 6 77 l-2 70 47 -35 c57 -42 94 -53 110 -33 16 19 -9
52 -57 76 -85 44 -78 64 39 108 51 20 76 35 78 47 3 16 0 18 -25 12 -15 -3
-63 -9 -105 -13 l-78 -6 0 26 c0 14 4 27 8 29 16 6 72 98 78 128 10 50 -23 38
-88 -32 -63 -68 -78 -68 -78 0 0 71 -54 120 -80 73z"/>
<path d="M1459 3933 c-6 -16 -8 -53 -5 -85 3 -32 2 -58 -3 -58 -4 0 -20 21
-34 48 -37 67 -72 107 -85 98 -7 -4 -12 -14 -12 -22 0 -21 38 -93 66 -127 13
-16 24 -38 24 -49 0 -17 -4 -19 -32 -14 -92 17 -148 19 -148 5 1 -36 43 -60
120 -68 l55 -6 -42 -30 c-44 -31 -64 -68 -45 -87 12 -12 41 2 87 40 l30 25 6
-80 c6 -79 13 -103 28 -103 12 0 30 47 39 99 l7 44 28 -41 c34 -52 73 -80 90
-63 14 14 -12 67 -49 102 -13 12 -24 31 -24 41 0 19 13 23 102 33 85 9 91 44
8 45 -19 0 -52 5 -72 11 -49 13 -50 38 -2 77 39 32 74 79 74 100 0 23 -37 12
-81 -23 -63 -50 -73 -47 -65 20 4 33 2 64 -4 75 -16 29 -49 25 -61 -7z"/>
<path d="M3166 3528 c-8 -13 -19 -50 -25 -82 -6 -33 -13 -61 -15 -63 -2 -3
-16 16 -31 40 -29 51 -48 63 -66 41 -13 -16 0 -50 37 -101 l16 -23 -75 0
c-115 0 -127 -37 -20 -64 l47 -12 -35 -24 c-43 -29 -68 -60 -69 -82 0 -30 36
-20 86 22 25 23 51 39 58 37 6 -2 13 -37 16 -83 8 -115 31 -140 44 -47 12 80
26 123 41 123 7 0 33 -26 57 -57 26 -34 53 -59 66 -61 31 -5 28 18 -10 88 -18
32 -30 61 -27 65 4 3 28 1 54 -5 59 -13 85 -6 85 24 0 36 -23 48 -90 48 -65 0
-76 9 -32 27 43 18 117 85 108 99 -13 22 -74 -2 -139 -55 -58 -47 -72 -17 -41
83 10 28 14 59 11 68 -9 23 -34 20 -51 -6z"/>
<path d="M2140 3029 c-7 -11 -14 -45 -17 -75 -7 -67 -22 -69 -63 -9 -35 50
-60 59 -60 20 0 -15 15 -42 38 -67 l37 -41 -40 6 c-46 7 -71 -4 -62 -27 4 -11
19 -16 47 -16 22 0 40 -4 40 -8 0 -5 -13 -26 -30 -48 -49 -65 -31 -89 29 -38
l31 26 0 -44 c0 -52 23 -92 40 -68 5 8 9 35 7 60 -3 57 15 62 68 20 21 -16 47
-30 58 -30 18 0 15 6 -20 43 -23 23 -43 51 -45 62 -3 18 3 20 57 23 33 1 67 5
75 8 23 9 -17 34 -54 34 -17 0 -38 5 -46 10 -12 8 -9 15 19 44 21 22 31 41 28
50 -11 28 -44 17 -80 -26 l-35 -41 5 70 c6 74 -6 101 -27 62z"/>
<path d="M1076 2565 c-19 -146 -25 -149 -101 -69 -41 44 -58 55 -66 47 -9 -9
-4 -25 20 -67 17 -31 31 -61 31 -67 0 -7 -18 -8 -54 -4 -50 7 -55 5 -66 -16
-11 -19 -10 -24 6 -36 19 -14 37 -17 99 -14 l40 1 -25 -17 c-75 -54 -105 -81
-105 -94 0 -26 56 -10 108 32 27 21 54 39 58 39 12 0 11 -53 -2 -106 -10 -37
-9 -48 2 -59 26 -25 50 6 58 74 4 33 10 63 13 67 4 3 14 -8 22 -25 16 -29 43
-51 65 -51 20 0 12 42 -14 76 -14 18 -25 35 -25 38 0 3 17 6 39 6 65 0 101 11
101 30 0 20 -19 30 -58 30 -25 0 -70 20 -46 20 19 0 84 70 84 90 0 32 -31 23
-77 -22 -52 -51 -61 -45 -70 45 -3 37 -12 75 -18 84 -11 15 -14 11 -19 -32z"/>
<path d="M2707 2237 c-3 -8 1 -43 9 -78 19 -88 18 -138 -2 -146 -9 -3 -50 12
-96 36 -89 46 -138 53 -138 21 0 -12 18 -32 46 -52 79 -57 97 -74 91 -85 -4
-6 -37 -16 -73 -23 -62 -12 -104 -36 -104 -59 0 -5 8 -17 17 -26 22 -22 92
-15 156 16 26 13 50 20 54 16 4 -4 -9 -24 -29 -45 -84 -88 -120 -162 -79 -162
27 0 64 33 118 103 50 65 61 77 79 77 19 0 34 -49 34 -111 0 -69 12 -99 40
-99 39 0 51 70 28 169 -6 28 -9 54 -5 57 3 4 24 -8 46 -25 48 -38 107 -52 117
-28 8 22 -19 58 -64 83 -20 11 -37 26 -37 33 0 7 32 25 70 40 83 32 115 51
115 68 0 21 -47 26 -111 14 -34 -7 -63 -11 -65 -8 -2 2 12 24 31 48 46 58 62
106 43 125 -13 13 -18 12 -41 -6 -14 -11 -42 -47 -62 -80 -20 -33 -43 -60 -51
-60 -9 0 -31 33 -53 83 -41 87 -74 129 -84 104z"/>
<path d="M1651 1608 c-5 -13 -13 -43 -18 -68 l-8 -45 -22 38 c-14 23 -30 37
-43 37 -25 0 -25 -16 0 -58 11 -18 20 -35 20 -37 0 -3 -24 -5 -54 -5 -31 0
-58 -5 -62 -12 -10 -15 24 -38 58 -38 15 0 28 -4 28 -10 0 -5 -4 -10 -9 -10
-16 0 -73 -59 -66 -70 11 -17 31 -11 70 20 21 17 41 28 44 24 3 -3 8 -35 11
-70 3 -35 9 -65 15 -67 5 -1 15 26 21 61 6 34 14 66 18 70 4 3 29 -18 56 -48
34 -39 51 -52 59 -45 8 8 3 25 -15 59 -14 26 -23 50 -20 54 3 3 27 6 53 6 37
1 48 5 51 18 4 22 -33 38 -85 38 l-36 0 53 38 c30 20 53 42 52 47 -3 21 -40
15 -80 -15 -40 -28 -72 -39 -72 -22 0 4 7 31 15 61 8 30 12 58 9 63 -10 16
-35 8 -43 -14z"/>
</g>
</svg>
