<?xml version="1.0" standalone="no"?>
<!DOCTYPE svg PUBLIC "-//W3C//DTD SVG 20010904//EN"
 "http://www.w3.org/TR/2001/REC-SVG-20010904/DTD/svg10.dtd">
<svg version="1.0" xmlns="http://www.w3.org/2000/svg"
 width="676.000000pt" height="720.000000pt" viewBox="0 0 676.000000 720.000000"
 preserveAspectRatio="xMidYMid meet">

<g transform="translate(0.000000,720.000000) scale(0.100000,-0.100000)"
fill="#000000" stroke="none">
<path d="M3824 7066 c-109 -112 -164 -232 -164 -364 0 -34 10 -124 21 -200 37
-236 15 -341 -110 -534 -35 -54 -65 -98 -67 -98 -9 0 34 117 77 205 69 143 90
252 73 379 -12 83 -23 48 -21 -66 2 -128 -10 -174 -75 -301 -44 -87 -78 -179
-78 -213 0 -13 -5 -26 -11 -30 -7 -4 -9 0 -6 12 3 11 8 64 12 119 3 56 10 116
15 135 41 158 50 203 50 256 0 34 -6 79 -14 100 -16 46 -64 119 -100 153 -43
40 -42 15 1 -37 22 -26 51 -67 64 -92 33 -63 31 -159 -8 -314 l-30 -118 -7 63
c-8 78 -38 174 -69 216 -12 17 -54 58 -93 91 -57 49 -75 71 -90 111 -19 53
-34 66 -34 31 0 -44 49 -118 110 -165 33 -25 71 -60 84 -78 43 -57 76 -191 76
-307 -1 -68 -11 -52 -34 50 -26 119 -59 169 -223 345 -104 110 -150 180 -175
259 -24 78 -34 88 -58 58 -30 -36 -53 -130 -52 -212 1 -97 23 -192 83 -361 64
-181 79 -240 79 -324 0 -82 -31 -315 -42 -315 -4 0 -8 8 -9 18 0 9 -3 26 -5
37 -3 11 -6 103 -7 205 -4 206 -4 206 -94 420 -48 115 -48 115 -48 228 0 104
-5 132 -18 99 -3 -8 -8 -38 -12 -68 -9 -76 14 -175 75 -319 70 -166 81 -223
74 -395 -5 -125 -3 -148 16 -215 12 -41 24 -93 27 -115 l4 -40 -18 23 c-49 61
-73 190 -73 402 0 185 -12 241 -68 334 -64 107 -112 256 -112 352 0 24 -5 34
-15 34 -8 0 -15 -2 -15 -4 0 -3 5 -40 11 -82 15 -110 51 -218 100 -299 63
-104 70 -135 79 -370 5 -128 14 -230 22 -262 19 -68 5 -59 -22 14 -18 48 -22
84 -25 223 -5 257 -29 318 -190 475 -74 73 -100 107 -133 174 -23 46 -42 91
-42 101 0 10 -7 24 -17 31 -15 13 -16 10 -10 -26 13 -83 76 -183 189 -301 159
-166 175 -210 180 -493 l3 -153 -27 61 c-17 36 -38 117 -54 203 -34 188 -50
251 -81 312 -26 51 -137 167 -335 348 -141 130 -198 218 -243 381 -9 31 -20
57 -25 57 -13 0 -40 -90 -40 -135 0 -110 52 -284 142 -480 168 -363 166 -358
202 -605 14 -91 30 -187 36 -214 6 -27 9 -51 6 -53 -7 -7 -35 89 -46 162 -38
244 -42 260 -108 395 -30 62 -89 133 -103 124 -5 -3 3 -22 19 -42 83 -109 132
-232 152 -382 24 -183 54 -276 122 -377 16 -24 27 -43 24 -43 -9 0 -67 89 -95
148 -34 70 -75 191 -97 292 -21 96 -39 117 -29 35 5 -50 22 -119 52 -214 2 -9
-15 19 -39 62 -63 112 -146 193 -244 237 -97 42 -213 141 -306 260 l-27 35 0
-50 c-1 -159 71 -304 273 -555 89 -111 107 -159 126 -325 12 -114 34 -211 52
-233 6 -7 8 -15 5 -18 -10 -11 -122 136 -163 215 -23 43 -57 126 -75 185 -34
107 -57 140 -45 65 16 -101 109 -306 178 -392 50 -63 26 -51 -55 27 -70 68
-167 200 -182 246 -6 19 -35 29 -35 12 0 -24 124 -202 181 -260 35 -36 54 -60
43 -54 -41 22 -134 114 -218 217 -159 193 -273 265 -645 411 -91 36 -199 83
-240 105 -133 71 -272 197 -334 301 l-35 58 -11 -28 c-64 -160 -22 -301 123
-418 63 -51 148 -103 313 -192 187 -100 201 -109 279 -168 70 -53 179 -162
359 -358 82 -89 182 -182 245 -229 14 -10 -2 -4 -35 14 -86 46 -196 132 -264
205 -32 35 -61 64 -65 64 -38 0 119 -164 222 -233 84 -56 167 -101 215 -116
41 -14 60 -32 25 -24 -151 33 -284 115 -388 235 -31 37 -50 48 -50 29 0 -19
114 -133 178 -178 35 -25 89 -56 120 -69 31 -13 49 -24 39 -24 -33 0 -142 57
-206 109 -211 172 -417 261 -572 248 -84 -7 -163 -43 -220 -100 l-42 -42 94
-6 c52 -3 105 -11 118 -18 13 -7 82 -74 155 -148 204 -211 353 -318 526 -379
74 -26 56 -30 -41 -10 -99 21 -214 63 -307 112 -84 45 -102 51 -102 35 0 -12
161 -95 244 -126 92 -34 188 -55 259 -55 97 -1 44 -22 -70 -28 -223 -12 -431
78 -643 277 -62 58 -80 70 -80 53 0 -11 116 -123 178 -171 113 -86 278 -161
404 -180 l63 -10 -65 4 c-100 6 -254 66 -540 212 -140 71 -295 144 -344 161
-177 64 -334 76 -471 34 l-60 -18 71 -7 c180 -17 274 -72 436 -255 214 -241
350 -359 518 -451 41 -22 72 -41 69 -41 -24 0 -260 96 -380 155 -105 52 -129
60 -129 45 0 -15 233 -126 368 -175 56 -21 101 -40 99 -41 -2 -2 -42 1 -88 7
-163 20 -278 -19 -410 -138 -66 -59 -163 -172 -155 -180 1 -2 32 9 67 24 58
24 78 27 204 29 92 2 162 -2 205 -12 78 -17 290 -83 290 -91 0 -3 -6 -3 -14 0
-39 15 -347 47 -377 40 -42 -11 -15 -23 51 -23 95 0 500 -63 487 -76 -2 -2
-73 1 -158 8 -178 13 -409 2 -417 -20 -3 -10 3 -11 25 -6 83 21 543 2 618 -26
39 -14 -84 -31 -295 -40 -284 -12 -330 -27 -533 -182 -227 -172 -371 -228
-598 -229 -44 0 -79 -4 -79 -8 0 -13 152 -79 237 -103 62 -18 104 -22 203 -22
110 0 134 3 204 27 43 15 120 50 170 77 138 73 206 91 372 97 78 3 163 2 190
-3 41 -7 24 -9 -106 -15 -110 -4 -179 -13 -238 -28 -106 -28 -260 -97 -245
-112 6 -6 30 1 73 22 136 67 287 100 455 98 102 -1 91 -7 -70 -34 -181 -32
-405 -106 -405 -136 0 -14 12 -10 110 31 122 51 423 112 610 124 l85 5 -110
-20 c-362 -65 -455 -92 -547 -155 -22 -16 -86 -78 -142 -138 -261 -285 -316
-331 -419 -356 -51 -12 -67 -11 -140 4 -93 20 -153 53 -188 104 -22 33 -24 34
-27 13 -8 -53 52 -144 123 -186 139 -81 286 -98 432 -49 94 31 240 106 388
201 217 139 313 174 592 218 54 9 109 19 123 22 14 3 23 3 20 0 -8 -9 -209
-64 -260 -72 -84 -12 -165 -38 -235 -74 -76 -39 -155 -108 -155 -134 0 -9 1
-17 3 -17 2 0 28 24 58 53 67 65 161 112 276 137 108 24 134 24 68 1 -118 -42
-294 -156 -273 -176 3 -3 48 24 100 59 81 54 119 71 254 116 87 29 166 55 174
57 8 2 -43 -26 -115 -62 -251 -129 -356 -231 -415 -401 -34 -96 -27 -281 16
-432 l15 -54 47 95 c52 102 144 220 240 304 108 95 330 244 442 297 74 35
-108 -119 -217 -184 -122 -73 -169 -112 -225 -187 -41 -57 -56 -112 -15 -60
60 78 152 166 204 196 113 67 198 127 247 176 38 37 45 42 27 17 -45 -64 -156
-169 -226 -214 -117 -75 -197 -172 -236 -285 -19 -56 -27 -169 -10 -159 4 3
11 33 15 67 7 76 58 186 115 250 22 25 78 72 126 103 50 34 120 95 171 149
113 121 94 86 -53 -92 -261 -318 -333 -428 -368 -561 -18 -66 -18 -98 1 -391
6 -85 3 -110 -25 -231 -41 -175 -80 -257 -154 -325 -32 -28 -57 -54 -57 -57 0
-12 78 -6 131 10 135 40 278 135 337 224 66 98 89 172 132 421 38 219 117 413
246 606 60 89 198 241 268 295 22 18 -15 -26 -82 -97 -131 -137 -152 -165
-129 -165 8 0 38 28 68 63 65 75 190 199 196 193 10 -9 -64 -99 -156 -190
-107 -107 -157 -186 -180 -291 -17 -75 -18 -147 -3 -152 8 -3 12 9 12 42 0 26
7 75 16 109 27 104 70 173 176 276 53 52 117 126 142 164 25 38 46 62 46 54 0
-16 -60 -119 -96 -163 -71 -88 -144 -185 -169 -225 -78 -124 -73 -284 15 -465
50 -103 93 -160 112 -149 12 7 7 60 -12 124 -29 101 14 161 177 249 190 104
253 143 305 189 55 50 55 47 0 -33 -34 -49 -93 -110 -200 -207 -28 -27 -63
-71 -78 -100 -29 -57 -44 -161 -25 -172 7 -5 11 4 11 26 0 19 10 63 21 98 23
65 22 65 188 225 77 75 148 173 176 243 30 75 27 38 -6 -64 -48 -152 -114
-270 -228 -411 -28 -35 -47 -63 -42 -63 13 0 118 119 158 179 90 134 161 324
170 459 3 46 9 78 13 70 14 -25 20 -143 11 -199 -21 -125 -31 -147 -184 -421
-14 -26 -38 -65 -53 -87 -46 -70 -85 -250 -51 -239 7 3 13 27 14 62 1 41 10
73 29 110 15 28 34 65 43 81 8 17 44 77 80 135 117 190 157 314 149 467 -4 85
-4 87 10 53 22 -51 18 -199 -6 -281 -11 -36 -56 -151 -100 -255 -45 -104 -91
-229 -103 -277 -20 -81 -21 -95 -10 -175 14 -98 53 -176 177 -357 175 -254
184 -277 135 -353 -17 -27 -31 -52 -31 -57 0 -15 104 5 156 30 140 68 153 214
49 548 l-57 182 5 120 c5 124 32 251 68 329 11 23 17 32 13 21 -11 -37 -18
-305 -7 -305 6 0 13 51 17 118 8 152 39 357 55 366 3 2 4 -67 2 -154 -1 -87 2
-198 8 -247 16 -126 41 -246 53 -258 11 -10 10 -7 -13 155 -32 224 -34 396 -6
550 11 59 12 47 13 -140 0 -167 4 -224 21 -305 25 -120 40 -162 53 -149 6 6 4
27 -4 55 -27 90 -46 234 -45 343 l2 111 7 -90 c21 -250 101 -417 245 -510 46
-29 145 -70 145 -59 0 2 -16 18 -35 35 -51 45 -72 85 -101 195 -19 73 -25 113
-21 154 5 56 51 185 70 197 7 4 8 0 3 -13 -25 -64 -37 -284 -16 -284 6 0 10
26 10 58 1 96 18 188 54 280 40 99 44 92 16 -23 -30 -121 -24 -332 9 -343 11
-4 12 2 7 24 -3 16 -9 72 -12 124 -5 82 -2 108 20 190 l26 95 -5 -110 c-3 -60
-8 -129 -11 -152 -4 -27 -2 -43 4 -43 12 0 31 83 33 143 1 23 5 3 10 -45 13
-150 50 -235 129 -300 20 -15 101 -54 180 -87 241 -98 303 -143 359 -263 45
-95 70 -97 90 -8 14 58 14 181 1 216 -17 44 -55 82 -136 136 -102 70 -185 163
-236 265 -52 105 -59 164 -28 248 12 33 29 83 38 110 l16 50 9 -75 c16 -146
18 -160 29 -160 10 0 6 123 -8 213 -5 35 4 19 98 -190 31 -69 57 -113 66 -113
8 0 12 6 9 13 -3 6 -37 80 -75 162 -68 148 -87 194 -79 185 3 -3 31 -39 64
-80 79 -101 223 -215 238 -190 3 5 -14 21 -37 36 -55 34 -138 113 -192 184
-74 97 -78 111 -12 46 145 -143 486 -268 660 -242 25 4 46 11 46 15 0 4 -19
16 -42 28 -62 30 -164 108 -232 178 -95 97 -155 197 -190 314 -23 78 -20 83
12 24 34 -65 106 -151 168 -203 72 -59 76 -35 5 28 -76 67 -143 160 -182 250
-39 92 -36 108 6 37 66 -109 278 -342 304 -334 6 2 -26 42 -71 89 -123 129
-248 294 -248 328 0 5 24 -14 52 -41 103 -97 300 -219 320 -199 6 6 -20 26
-72 53 -74 39 -247 166 -238 174 1 2 71 0 155 -5 199 -10 222 -20 297 -133
140 -214 267 -290 526 -317 63 -6 152 -15 196 -20 152 -17 270 -73 357 -170
l40 -45 -7 44 c-23 150 -168 270 -474 394 -80 32 -161 69 -181 82 -93 59 -170
149 -336 391 -33 48 -92 120 -131 161 -67 68 -68 71 -30 50 55 -30 223 -198
275 -274 38 -57 61 -77 61 -55 0 34 -177 239 -275 319 -35 29 -31 27 40 -13
206 -117 385 -188 409 -164 10 10 10 11 -76 34 -31 9 -89 32 -130 51 -75 36
-189 102 -153 90 157 -55 222 -68 350 -69 139 0 205 14 320 72 l50 25 -86 17
c-146 30 -240 85 -334 196 -81 96 -177 194 -213 216 -18 11 -31 22 -29 24 7 7
121 -61 201 -120 70 -51 96 -65 96 -50 0 8 -54 53 -124 102 -121 86 -276 152
-357 152 -21 0 -41 5 -44 11 -9 13 100 3 175 -17 30 -9 90 -35 133 -60 81 -46
116 -51 62 -9 -52 42 -120 74 -211 99 -79 22 -84 25 -48 25 58 1 162 -33 275
-89 191 -97 301 -130 424 -130 100 0 191 24 318 84 65 31 138 61 162 67 56 14
130 7 154 -15 27 -24 30 -20 18 22 -15 48 -89 121 -158 155 -84 41 -154 57
-289 67 -171 13 -243 34 -400 114 -277 143 -314 160 -384 177 l-71 18 65 0
c97 1 304 -42 334 -70 13 -12 36 -12 36 0 0 20 -184 75 -320 97 l-85 13 100
-5 c55 -2 131 -11 170 -19 82 -18 93 -18 79 -6 -25 23 -164 45 -286 46 -81 0
-118 3 -100 8 15 5 135 9 267 11 291 3 318 10 409 106 83 87 78 94 -69 101
-98 5 -132 11 -184 32 -36 15 -72 33 -80 41 -9 8 -63 37 -120 65 l-104 51 65
0 c35 0 107 -9 158 -20 106 -23 120 -24 120 -11 0 16 -270 64 -297 54 -7 -3
-13 -1 -13 4 0 13 122 42 237 55 56 6 100 15 97 19 -2 4 -19 6 -37 4 -17 -2
-63 -6 -102 -10 -38 -4 -96 -13 -129 -21 -32 -8 -60 -13 -62 -12 -2 2 25 23
59 45 34 23 80 56 101 75 51 42 146 141 146 151 0 18 -23 1 -96 -71 -43 -42
-94 -88 -113 -101 -30 -22 -32 -22 -23 -4 6 11 18 26 27 33 9 7 64 86 123 174
124 187 236 307 402 432 58 43 130 103 160 133 65 64 56 73 -44 47 -34 -8
-110 -23 -171 -31 -166 -24 -271 -51 -363 -96 -86 -42 -116 -67 -320 -281 -95
-100 -185 -162 -253 -174 -28 -5 -20 2 41 36 114 64 194 134 274 239 71 93
154 178 225 232 22 16 30 28 24 32 -7 4 -42 -15 -78 -43 -67 -50 -67 -51 -46
-17 23 37 27 57 11 57 -5 0 -19 -19 -31 -42 -29 -56 -189 -213 -263 -258 -64
-39 -197 -137 -208 -154 -5 -8 -8 -7 -8 1 0 25 70 90 172 158 125 84 212 170
255 251 46 86 86 241 87 338 1 97 -10 105 -62 45 -95 -111 -142 -142 -275
-178 -42 -11 -80 -21 -83 -21 -3 0 16 17 43 39 99 78 214 231 174 231 -5 0
-23 -23 -41 -50 -62 -97 -271 -270 -326 -270 -3 0 23 31 58 69 36 38 80 89 97
115 46 66 93 171 89 197 -2 17 -16 -3 -50 -72 -41 -83 -138 -226 -138 -203 0
5 14 43 31 84 17 41 46 122 66 180 53 156 81 198 242 365 111 114 155 167 183
220 37 71 78 207 77 254 l0 26 -17 -25 c-34 -50 -106 -120 -157 -155 -48 -31
-121 -62 -260 -111 -78 -26 -129 -87 -215 -254 -109 -212 -173 -271 -363 -336
-75 -26 -76 -22 -6 51 115 121 189 229 171 247 -7 7 -17 -2 -31 -29 -11 -22
-43 -69 -72 -104 -71 -85 -228 -243 -235 -236 -6 6 85 127 150 202 27 31 32
45 17 45 -9 0 -50 -44 -105 -110 l-28 -35 21 35 c42 68 69 126 90 194 22 71
28 166 11 166 -5 0 -10 -15 -10 -32 -1 -86 -42 -205 -105 -300 -78 -119 -87
-115 -26 11 71 148 90 232 72 326 -14 77 -57 164 -118 239 -77 95 -106 103
-79 22 40 -118 -2 -262 -114 -389 -23 -26 -44 -46 -46 -45 -2 2 6 40 18 83 21
81 32 277 15 283 -4 1 -10 -40 -12 -90 -4 -81 -36 -239 -62 -304 -4 -12 -32
-47 -60 -79 l-53 -58 0 44 c0 96 42 270 95 392 5 12 3 17 -7 17 -17 0 -58 -99
-83 -198 -9 -35 -21 -116 -26 -180 -6 -64 -12 -118 -14 -120 -1 -2 -13 29 -25
68 -18 58 -21 84 -15 138 11 106 41 235 90 380 42 124 49 161 26 136 -21 -20
-111 -316 -127 -417 -19 -112 -32 -119 -33 -17 -1 40 10 87 39 170 49 139 67
205 79 291 13 97 0 148 -69 264 -92 151 -105 204 -105 410 0 120 4 177 13 193
22 39 1 24 -74 -52z m6 -219 c6 -37 38 -141 71 -230 93 -248 93 -326 -3 -585
-40 -109 -51 -154 -55 -217 -5 -76 -3 -87 46 -230 55 -164 65 -239 38 -290
-17 -34 -54 -71 -62 -63 -3 3 -12 47 -20 99 -7 52 -23 137 -35 189 -29 125
-23 252 16 355 73 196 94 274 94 349 0 86 -14 163 -42 220 -10 23 -16 33 -13
22 3 -10 10 -60 15 -110 11 -110 0 -240 -28 -316 -11 -30 -37 -100 -58 -155
-37 -97 -38 -104 -37 -225 0 -69 8 -170 17 -225 9 -55 19 -124 23 -154 6 -49
4 -54 -11 -48 -10 4 -23 7 -31 7 -20 0 -55 92 -67 178 -8 57 -9 105 -1 178 6
54 10 100 8 102 -2 2 -13 -23 -26 -55 -30 -78 -38 -233 -15 -318 8 -32 13 -61
11 -63 -8 -8 -23 9 -39 42 -58 123 -26 301 91 501 82 142 101 181 119 255 16
68 16 76 -1 173 -9 56 -21 125 -25 152 -5 28 -9 115 -10 195 -1 141 -2 144
-16 100 -27 -86 -29 -203 -4 -355 37 -235 24 -292 -123 -538 -152 -252 -174
-352 -112 -501 17 -39 -20 -10 -42 34 -45 88 -22 213 89 485 94 230 135 347
147 425 6 36 11 146 11 245 0 99 5 212 10 250 10 66 48 200 55 193 2 -2 9 -34
15 -71z m-1701 -171 c32 -74 98 -154 251 -306 217 -216 228 -237 334 -633 70
-259 130 -383 230 -475 25 -23 46 -44 46 -47 0 -2 -15 -7 -34 -11 -45 -8 -143
43 -193 100 -71 83 -99 155 -152 400 -22 100 -52 222 -66 271 -51 179 -153
347 -263 431 -25 19 -47 32 -49 30 -3 -2 18 -32 45 -65 70 -87 148 -233 194
-364 44 -125 41 -113 97 -400 23 -114 50 -226 62 -248 27 -54 98 -120 159
-150 27 -13 49 -26 50 -29 0 -3 -17 -10 -37 -17 -52 -16 -101 6 -160 71 -85
92 -141 236 -208 535 -44 196 -60 239 -169 464 -92 191 -141 317 -151 393 -3
27 -8 59 -11 72 -7 35 3 26 25 -22z m856 -108 c24 -73 44 -105 151 -239 101
-127 148 -204 171 -277 9 -31 17 -130 24 -287 5 -138 15 -268 24 -305 15 -70
49 -155 65 -165 22 -14 8 -26 -27 -23 -32 3 -38 7 -50 43 -26 74 -43 209 -48
395 -10 304 -27 368 -132 501 -36 46 -86 115 -112 153 -25 37 -47 63 -49 57
-8 -23 66 -157 118 -216 103 -116 120 -188 119 -490 -1 -196 2 -232 23 -332
13 -62 21 -113 17 -113 -4 0 -14 -3 -22 -6 -12 -4 -18 7 -25 48 -20 100 -23
148 -27 360 -3 168 -8 233 -24 307 -23 106 -36 134 -24 51 10 -69 7 -623 -4
-710 -6 -50 -12 -66 -25 -68 -23 -4 -23 42 -3 223 8 72 17 191 20 265 10 199
-4 258 -108 483 -97 209 -110 254 -94 339 6 32 14 58 18 58 4 0 15 -24 24 -52z
m2566 -462 c-26 -41 -129 -140 -209 -198 -159 -116 -244 -239 -263 -378 -17
-120 -54 -219 -123 -331 -36 -57 -77 -125 -92 -150 -19 -32 -41 -53 -70 -67
-65 -32 -110 -78 -135 -137 -12 -30 -26 -55 -29 -55 -4 0 -17 11 -29 24 -21
22 -22 27 -11 86 18 99 69 165 148 191 128 41 196 107 255 247 37 86 34 88
-14 6 -81 -135 -154 -193 -301 -238 -96 -30 -137 -76 -148 -169 l-5 -49 -28
22 c-24 19 -27 27 -21 54 11 51 43 105 92 159 56 59 99 90 207 146 44 23 100
61 123 84 53 51 118 158 156 258 57 149 71 173 141 244 39 39 86 84 105 99
l35 27 -44 -25 c-117 -66 -197 -166 -298 -375 -92 -191 -132 -228 -352 -321
-58 -24 -119 -56 -136 -72 -40 -35 -74 -112 -77 -172 0 -25 -3 -46 -4 -46 -2
0 -15 5 -29 12 -39 17 -37 66 6 155 41 86 106 140 269 222 230 117 273 160
385 377 94 186 142 228 353 309 41 16 93 46 115 66 23 20 44 35 46 34 2 -2 -6
-20 -18 -39z m-1079 -175 c19 -103 -13 -220 -106 -395 -31 -57 -70 -145 -86
-196 -28 -81 -31 -103 -28 -181 2 -49 0 -89 -3 -89 -3 0 -14 6 -24 14 -27 19
-32 115 -11 208 20 90 78 222 134 307 60 89 45 88 -18 -1 -102 -144 -160 -294
-161 -420 -1 -32 -5 -58 -9 -58 -4 0 -24 7 -44 15 -40 17 -39 8 -10 127 29
117 89 221 189 330 58 63 114 153 130 208 4 15 -8 4 -29 -29 -49 -72 -65 -92
-149 -183 -113 -123 -175 -238 -200 -370 -6 -32 -14 -58 -19 -58 -32 0 -13
107 37 208 33 65 89 140 190 256 129 148 190 271 183 371 -5 59 -4 60 9 26 8
-19 19 -59 25 -90z m-2486 -140 c157 -106 215 -178 278 -344 45 -120 101 -221
155 -279 60 -66 93 -86 163 -102 25 -6 46 -15 45 -21 0 -5 -21 -24 -45 -42
l-45 -32 -56 29 c-62 31 -143 111 -183 180 -15 25 -40 86 -58 135 -60 172
-147 303 -292 440 -50 47 -93 84 -95 81 -2 -2 31 -48 75 -102 183 -228 231
-315 279 -504 27 -108 67 -200 108 -248 31 -37 93 -72 126 -72 19 0 20 -2 8
-16 -10 -12 -25 -15 -63 -11 -43 4 -55 10 -84 43 -51 59 -92 156 -128 299 -18
72 -39 146 -48 167 -17 39 -90 139 -172 233 -74 86 -129 176 -155 253 -12 37
-24 74 -27 82 -3 8 24 -12 59 -46 35 -34 105 -89 155 -123z m-1351 97 c33 -58
126 -147 205 -198 94 -60 148 -84 355 -161 334 -124 417 -183 562 -402 112
-169 214 -275 298 -308 50 -19 79 -23 171 -24 101 0 110 -1 101 -17 -26 -40
-242 -17 -324 35 -91 58 -233 212 -332 359 -95 143 -306 273 -594 369 -158 53
-231 94 -336 193 -69 66 -49 26 26 -51 74 -75 173 -134 293 -173 177 -58 317
-136 449 -250 29 -25 108 -112 176 -195 68 -82 159 -186 202 -231 91 -93 143
-119 282 -138 l84 -11 -26 -31 c-23 -28 -32 -31 -69 -28 -117 10 -162 43 -438
317 -319 317 -470 432 -735 563 -231 113 -327 189 -365 291 -20 54 -27 123
-12 123 4 0 16 -15 27 -32z m3807 -507 c-56 -77 -76 -96 -51 -49 12 24 97 128
105 128 2 0 -22 -36 -54 -79z m1057 -213 c-49 -116 -121 -198 -356 -404 -122
-108 -195 -182 -230 -233 -4 -5 -43 30 -43 38 0 4 17 15 37 26 90 48 181 142
227 235 16 31 11 28 -41 -26 -32 -33 -78 -76 -103 -96 -54 -42 -148 -94 -156
-86 -11 11 28 72 76 117 48 47 152 110 215 131 66 22 27 23 -43 1 -100 -30
-158 -66 -240 -147 -70 -70 -104 -83 -63 -25 63 88 228 202 351 242 91 30 168
71 215 113 l40 37 -50 -30 c-57 -33 -117 -58 -258 -107 -54 -18 -118 -44 -141
-58 -67 -39 -149 -109 -180 -155 -16 -22 -31 -41 -35 -40 -3 0 -17 14 -30 30
l-23 30 28 40 c61 88 163 145 365 204 246 71 330 109 407 184 26 25 48 43 50
39 2 -3 -7 -30 -19 -60z m-1852 -29 c361 -49 706 -227 969 -500 297 -309 451
-747 431 -1229 -15 -359 -128 -628 -380 -904 -85 -93 -236 -224 -332 -287
-231 -152 -551 -228 -845 -199 -219 22 -396 70 -578 157 -187 89 -300 172
-468 344 -279 288 -439 624 -476 1001 -29 294 58 650 223 914 157 251 377 469
574 567 130 65 338 125 485 140 81 9 324 6 397 -4z m2373 -222 c0 -2 -30 -34
-68 -73 -37 -38 -90 -96 -117 -129 -28 -33 -52 -62 -55 -65 -3 -3 -49 -57
-101 -120 -170 -204 -289 -316 -429 -400 -75 -45 -147 -77 -154 -68 -2 1 -6
15 -10 31 -5 23 -3 27 14 27 40 0 143 42 199 80 59 40 106 87 162 160 18 25
68 85 109 134 116 137 126 150 104 135 -17 -11 -94 -93 -278 -295 -34 -37 -72
-66 -120 -89 -67 -33 -201 -73 -211 -63 -2 2 -11 21 -20 41 l-15 37 42 0 c59
0 168 24 224 50 69 30 127 82 191 168 75 104 245 269 340 331 79 52 85 67 10
30 -113 -58 -211 -145 -441 -388 -63 -66 -100 -90 -185 -115 -58 -17 -211 -22
-211 -7 0 5 -2 16 -5 23 -4 11 15 16 90 24 82 9 109 17 181 54 76 39 103 61
267 225 158 157 191 186 251 214 38 18 94 36 125 40 62 9 111 13 111 8z
m-4742 -113 c83 -28 135 -55 281 -147 242 -153 374 -185 523 -126 l50 20 -20
-33 c-30 -49 -95 -69 -202 -65 -101 4 -123 14 -321 143 -156 102 -289 168
-376 188 -71 16 -85 8 -20 -12 47 -15 225 -130 332 -216 196 -157 273 -191
413 -184 l85 5 -27 -23 c-38 -33 -100 -47 -173 -40 -133 14 -335 108 -483 226
-85 67 -300 269 -300 281 0 5 36 9 81 9 60 0 100 -7 157 -26z m4135 -55 c-63
-82 -143 -152 -223 -198 -77 -44 -148 -76 -155 -69 -7 7 146 131 216 175 33
21 93 64 133 95 39 31 72 57 74 58 2 0 -18 -28 -45 -61z m-4807 -270 c50 -16
162 -66 250 -111 468 -239 556 -275 713 -299 99 -14 192 0 281 42 35 16 64 28
66 26 2 -2 -1 -18 -7 -35 -10 -28 -20 -35 -92 -58 -67 -22 -102 -27 -192 -28
-127 -1 -214 21 -324 81 -75 40 -64 19 19 -36 105 -70 203 -101 325 -101 71 0
167 16 218 35 13 5 17 2 17 -12 0 -15 -19 -29 -72 -54 -72 -33 -75 -34 -208
-34 -125 0 -140 2 -209 29 -84 33 -182 98 -291 192 -41 35 -121 96 -177 134
-104 71 -143 92 -81 43 19 -16 101 -89 182 -163 232 -212 323 -274 449 -306
100 -26 250 -8 346 42 31 16 34 13 22 -17 -17 -45 -48 -67 -120 -83 -137 -31
-263 -17 -398 45 -129 59 -212 126 -463 373 -217 214 -267 256 -358 303 -63
33 -65 34 -27 28 22 -3 81 -19 131 -36z m4746 -484 c86 -18 158 -40 213 -66
97 -45 226 -88 299 -100 l78 -12 -23 -18 c-53 -40 -142 -48 -394 -35 -145 7
-166 6 -222 -12 -34 -11 -80 -34 -103 -52 -36 -29 -40 -30 -40 -12 0 29 44 78
98 109 39 23 57 27 130 27 l84 1 -44 19 c-24 11 -67 20 -98 20 -49 1 -61 -4
-115 -42 -46 -33 -61 -39 -63 -27 -5 24 14 41 81 75 67 33 108 37 164 16 113
-43 206 -66 260 -65 32 1 49 3 38 6 -32 7 -152 51 -245 90 -127 53 -197 55
-312 8 -27 -11 -23 27 5 52 38 36 97 41 209 18z m-3529 -337 c-9 -48 -38 -84
-91 -115 -69 -40 -125 -37 -298 20 -155 51 -239 64 -359 57 l-80 -5 75 -7 c84
-9 196 -37 378 -97 221 -74 253 -74 327 -9 39 35 45 37 45 19 0 -38 -30 -97
-59 -114 -69 -41 -214 -16 -466 79 -204 76 -278 94 -394 94 l-96 0 30 20 c94
63 272 78 490 42 242 -41 328 -37 435 17 71 36 71 36 63 -1z m3457 -145 c56
-15 197 -82 268 -127 88 -55 228 -118 305 -136 93 -21 162 -28 362 -35 102 -3
155 -10 195 -23 69 -25 130 -54 130 -63 0 -4 -24 -10 -54 -13 -29 -4 -107 -25
-172 -47 -270 -91 -393 -78 -603 63 -131 89 -170 103 -291 103 -97 0 -111 -3
-194 -37 l-88 -36 7 56 c10 77 11 79 63 96 133 43 209 29 415 -75 77 -39 169
-82 206 -96 l66 -25 200 11 c110 7 232 13 270 14 l70 2 -75 14 c-55 10 -119
12 -242 8 -281 -11 -393 24 -703 217 l-60 38 -97 -5 -98 -4 0 57 c0 31 3 60 6
63 8 7 30 3 114 -20z m-3424 -220 c5 -35 2 -47 -21 -77 -15 -20 -52 -48 -83
-63 l-57 -28 -355 -5 -355 -5 -70 -30 c-97 -40 -365 -194 -365 -209 0 -3 55
22 123 54 138 67 242 103 366 127 74 15 101 15 235 4 83 -7 215 -15 293 -18
181 -8 217 1 277 68 41 45 44 47 50 26 9 -36 6 -81 -7 -98 -35 -46 -237 -61
-459 -35 -75 9 -192 16 -260 16 -165 0 -194 -8 -498 -144 -172 -76 -232 -91
-360 -90 -132 0 -177 18 -69 27 131 10 269 70 439 190 136 96 243 156 308 172
49 13 124 17 320 19 222 3 266 6 322 23 77 23 135 58 176 105 33 39 40 34 50
-29z m3342 -301 c75 -29 133 -74 286 -221 78 -75 163 -152 190 -171 l48 -35
-60 -3 c-79 -4 -227 27 -414 87 -84 27 -177 55 -205 62 -29 7 -53 15 -53 18 2
50 100 38 305 -35 11 -4 0 12 -25 34 -47 43 -118 76 -183 85 -49 6 -53 11 -38
43 11 24 15 26 54 20 62 -10 135 -47 197 -101 75 -66 234 -165 263 -165 3 0
-19 24 -50 53 -31 28 -77 75 -102 102 -119 130 -174 166 -273 180 -48 7 -55
16 -42 49 8 21 43 20 102 -2z m-3218 -112 c0 -20 -92 -76 -177 -107 -51 -18
-101 -27 -205 -33 -292 -20 -468 -84 -558 -204 -22 -29 -40 -57 -40 -61 0 -5
30 21 68 57 123 119 239 155 532 168 198 8 244 19 355 85 24 14 48 25 53 25
14 0 45 -81 35 -90 -14 -13 -164 -58 -243 -74 -41 -8 -126 -20 -189 -26 -137
-13 -297 -43 -377 -70 -109 -37 -178 -81 -322 -204 -79 -68 -176 -142 -215
-164 -128 -73 -256 -90 -381 -52 -56 18 -136 55 -136 65 0 1 24 -4 52 -12 78
-21 246 -12 323 17 121 46 194 106 441 361 158 164 201 182 470 194 183 9 301
28 361 59 49 24 123 91 123 111 1 16 30 -27 30 -45z m132 -324 c-51 -97 -132
-180 -238 -244 -142 -85 -272 -181 -363 -269 -82 -79 -107 -114 -39 -54 67 58
212 162 281 203 218 126 324 205 393 296 34 45 42 45 25 -1 -20 -51 -143 -153
-396 -325 -249 -170 -379 -292 -462 -432 l-44 -75 6 70 c13 137 85 304 169
393 43 47 131 108 261 182 224 128 313 196 367 279 15 25 28 55 28 66 0 34 12
37 31 8 18 -27 18 -28 -19 -97z m2913 -11 c73 -52 195 -176 306 -310 102 -123
259 -281 319 -322 25 -16 117 -69 205 -118 157 -86 260 -152 220 -142 -11 3
-51 12 -90 20 -319 70 -379 93 -509 198 -42 33 -125 112 -184 175 -136 145
-152 152 -373 164 -85 5 -168 12 -185 16 -38 9 -104 42 -104 52 0 5 14 18 30
30 l30 23 65 -20 c36 -11 105 -25 153 -32 48 -6 103 -15 121 -19 19 -5 37 -8
39 -6 8 8 -89 45 -135 52 -55 8 -129 42 -156 72 -19 20 -18 22 8 56 15 20 33
36 40 36 22 0 148 -68 227 -122 104 -72 163 -129 252 -246 94 -123 228 -252
295 -286 49 -25 148 -52 157 -44 2 3 -30 22 -72 43 -102 50 -209 153 -327 314
-150 204 -232 282 -394 376 l-83 47 21 29 c24 34 27 33 124 -36z m-2745 -121
c11 -12 9 -37 -9 -137 -13 -67 -33 -148 -46 -179 -40 -99 -124 -207 -302 -388
-182 -185 -185 -188 -226 -262 -43 -78 -57 -144 -67 -318 -8 -145 -43 -386
-65 -445 -7 -18 -6 -18 7 -5 42 42 88 215 124 468 28 195 51 268 117 374 54
86 120 157 243 258 203 168 250 232 309 423 l28 88 48 -47 c27 -27 49 -51 49
-54 0 -4 -51 -65 -112 -136 -354 -406 -450 -555 -507 -784 -6 -25 -27 -117
-46 -205 -52 -239 -87 -318 -182 -407 -42 -38 -173 -118 -173 -105 0 3 18 42
39 88 44 93 66 188 81 341 31 317 47 401 97 505 22 46 64 94 199 228 94 94
183 190 197 215 33 57 48 104 88 265 32 132 70 235 87 235 5 0 15 -7 22 -16z
m2288 -241 c-11 -60 -2 -158 24 -243 40 -130 131 -265 264 -390 l65 -60 -65
24 c-172 65 -277 151 -453 371 -44 55 -90 109 -102 119 -11 11 -21 22 -21 26
0 7 145 100 155 100 3 0 5 -20 5 -43 0 -110 112 -321 226 -427 36 -33 32 -21
-7 25 -31 36 -96 159 -118 224 -15 43 -24 101 -28 170 l-6 104 29 24 c16 12
32 23 35 23 4 0 2 -21 -3 -47z m-1798 -159 c0 -28 -5 -66 -11 -85 -20 -58 -97
-157 -234 -300 -96 -100 -141 -155 -168 -207 -44 -83 -48 -104 -9 -41 43 67
143 151 243 204 100 53 165 116 213 204 32 59 56 140 56 189 0 32 12 40 39 23
11 -7 13 -26 9 -80 -10 -139 -84 -236 -312 -406 -196 -147 -253 -219 -265
-340 l-6 -60 -23 56 c-33 79 -32 171 2 245 26 57 116 181 194 269 115 128 180
265 168 354 -3 25 -8 56 -12 69 -6 22 -5 22 55 -10 l61 -33 0 -51z m1437 -114
c27 -79 29 -158 6 -271 -9 -49 -17 -136 -17 -209 -1 -116 1 -129 26 -182 40
-85 74 -131 199 -263 63 -66 130 -140 150 -165 35 -43 85 -130 75 -130 -3 0
-25 19 -49 43 -29 28 -94 67 -193 116 -113 57 -161 87 -200 125 -93 94 -139
227 -164 481 -19 194 -51 291 -131 387 -42 50 -39 58 22 58 23 0 32 -7 48 -38
37 -73 60 -180 81 -377 24 -226 31 -264 65 -355 33 -86 88 -141 211 -211 93
-53 174 -92 174 -84 0 2 -24 17 -52 34 -100 59 -95 55 -177 135 -87 85 -96
111 -121 337 -32 285 -50 365 -109 480 l-50 97 30 12 c18 8 34 9 39 4 29 -31
99 -255 101 -323 1 -76 18 4 18 89 1 85 -12 151 -43 224 -13 31 -14 41 -4 48
27 17 44 1 65 -62z m-959 -31 c1 -19 12 -81 24 -139 11 -58 20 -125 20 -150 0
-60 -30 -136 -96 -245 -131 -215 -159 -280 -172 -391 -9 -75 13 -208 48 -289
64 -150 182 -405 185 -401 3 3 -40 149 -103 351 -66 210 -74 274 -50 394 22
107 68 214 160 371 42 71 84 148 92 172 18 47 24 222 11 296 -7 43 -7 43 20
40 70 -8 88 -148 37 -289 -15 -41 -51 -117 -82 -169 -30 -52 -72 -125 -94
-162 -79 -135 -92 -180 -92 -308 0 -124 6 -155 74 -367 22 -68 45 -153 51
-189 16 -95 8 -219 -19 -271 -25 -48 -49 -70 -36 -32 28 76 -13 185 -149 397
-130 203 -156 264 -157 361 0 76 11 108 87 256 14 28 60 118 103 200 42 83 84
180 93 217 34 136 15 263 -52 362 -17 25 -31 47 -31 49 0 2 28 -3 63 -13 59
-16 62 -18 65 -51z m539 -7 c7 -4 25 -34 40 -67 24 -52 28 -72 28 -150 0 -85
-4 -101 -70 -290 -65 -189 -69 -205 -69 -292 -1 -88 -2 -91 -20 -75 -28 26
-55 86 -77 170 -15 58 -22 132 -29 302 -8 223 -20 310 -46 362 -19 37 -18 38
16 38 17 0 30 -3 30 -6 0 -3 9 -52 21 -107 11 -56 24 -154 28 -217 l7 -115 13
89 c16 103 18 216 7 299 -11 87 12 73 58 -36 65 -150 62 -247 -10 -403 -38
-81 -53 -140 -54 -201 0 -63 16 -52 23 15 6 53 58 207 93 274 24 47 54 148 54
182 0 45 -27 133 -56 182 -26 47 -21 67 13 46z"/>
<path d="M3222 5080 c-132 -20 -293 -59 -380 -90 -122 -45 -222 -107 -222
-137 0 -20 13 -17 139 36 224 94 372 133 582 152 216 20 414 -4 602 -73 184
-67 220 -78 226 -72 19 19 -133 105 -260 148 -173 58 -445 72 -687 36z"/>
<path d="M3330 4994 c-14 -2 -65 -9 -114 -15 -141 -18 -270 -61 -324 -108 -13
-11 -21 -25 -18 -30 7 -10 36 -4 166 37 170 53 249 65 430 65 280 -1 421 -45
700 -218 30 -19 58 -34 63 -35 38 -2 -85 119 -171 167 -164 92 -323 131 -552
138 -85 2 -166 2 -180 -1z"/>
<path d="M3388 4865 c-133 -22 -233 -62 -277 -109 -32 -34 -22 -33 79 10 119
50 211 74 315 81 139 9 237 -11 394 -83 62 -29 79 -23 36 12 -112 90 -331 125
-547 89z"/>
<path d="M4370 4766 c0 -52 31 -168 55 -206 14 -22 44 -54 68 -70 47 -35 88
-85 119 -147 24 -48 37 -55 39 -20 4 72 -22 132 -94 221 -27 34 -73 103 -103
154 -54 91 -84 115 -84 68z"/>
<path d="M2437 4691 c-32 -35 -77 -144 -77 -186 0 -19 -76 -132 -145 -215
-104 -126 -105 -143 -8 -113 166 50 204 109 242 367 11 74 25 144 30 155 25
46 3 42 -42 -8z"/>
<path d="M3317 4573 c-15 -15 -4 -42 41 -103 49 -65 82 -134 82 -170 0 -25 20
-36 32 -19 13 21 3 84 -19 116 -11 15 -28 48 -37 73 -35 91 -73 130 -99 103z"/>
<path d="M3727 4528 c-36 -39 -121 -211 -106 -217 17 -5 48 29 80 88 33 61 89
111 126 111 28 0 31 25 4 40 -37 19 -72 11 -104 -22z"/>
<path d="M4140 4460 c-20 -5 -58 -18 -85 -30 -32 -14 -81 -24 -138 -27 -88 -6
-89 -6 -139 -52 -59 -53 -87 -108 -88 -171 0 -79 60 -159 68 -90 12 116 26
146 62 135 12 -4 30 5 52 23 61 53 148 92 205 92 29 0 73 5 98 12 37 10 55 10
103 -3 32 -9 68 -12 82 -8 14 4 55 7 93 8 51 1 67 4 67 15 0 54 -274 123 -380
96z"/>
<path d="M2865 4413 c-22 -8 -77 -16 -125 -17 -70 -2 -95 -7 -143 -30 -136
-66 -164 -147 -29 -86 80 36 196 53 317 47 201 -11 313 -71 387 -204 22 -40
44 -75 49 -79 19 -11 22 32 8 115 -13 79 -17 87 -46 106 -17 11 -40 34 -49 52
-19 33 -38 43 -91 43 -24 0 -38 8 -55 30 -23 32 -54 38 -89 19 -16 -8 -25 -7
-38 5 -21 19 -44 19 -96 -1z"/>
<path d="M4067 4249 c-90 -14 -158 -60 -180 -121 -11 -32 10 -28 65 11 101 73
219 71 353 -4 83 -46 131 -99 54 -59 -43 22 -195 54 -260 54 -115 0 -204 -59
-229 -152 -10 -36 -9 -49 7 -87 35 -84 128 -131 264 -131 128 0 222 48 285
145 40 63 61 79 127 96 46 11 64 29 30 29 -24 0 -83 35 -168 99 -38 29 -95 66
-126 81 -49 25 -73 32 -154 44 -11 2 -41 0 -68 -5z m118 -179 c9 -30 -5 -87
-26 -106 -19 -17 -22 -17 -47 -2 -49 30 -55 112 -9 121 53 10 76 7 82 -13z
m142 -20 c80 -40 90 -53 72 -88 -23 -43 -88 -103 -136 -124 -70 -31 -174 -28
-245 7 -110 54 -139 116 -82 176 35 36 46 37 33 2 -14 -38 -3 -85 27 -114 20
-19 38 -24 94 -27 128 -8 180 34 159 128 -6 24 -15 50 -21 57 -20 24 36 14 99
-17z"/>
<path d="M2760 4186 c-152 -41 -270 -105 -348 -190 -37 -40 -54 -76 -36 -76
11 0 50 23 72 44 l24 21 86 -92 c108 -115 147 -135 266 -134 164 1 291 68 303
158 4 33 2 44 -10 49 -23 8 -47 -8 -117 -80 -71 -74 -110 -96 -168 -96 -74 0
-206 91 -247 170 -12 24 -10 26 46 62 l58 37 -16 -34 c-20 -41 -9 -74 32 -101
40 -26 162 -31 209 -9 38 18 66 58 66 95 0 20 1 20 37 -5 39 -26 83 -33 83
-13 0 6 10 2 23 -10 32 -30 37 -28 37 16 0 26 -10 53 -35 89 -79 118 -186 147
-365 99z m192 -35 c24 -11 57 -31 73 -45 l30 -26 -59 27 c-107 47 -177 37
-352 -51 -87 -44 -124 -55 -124 -38 0 8 66 57 125 91 105 61 226 78 307 42z
m-29 -93 c21 -25 22 -47 1 -76 -33 -48 -112 -9 -100 51 3 16 11 36 18 44 15
19 57 9 81 -19z"/>
<path d="M3657 4030 c-3 -11 -2 -47 3 -78 34 -223 33 -214 16 -314 -17 -102
-21 -180 -9 -192 7 -7 30 99 54 254 14 93 6 196 -21 275 -24 70 -35 84 -43 55z"/>
<path d="M3366 4003 c-56 -110 -71 -256 -35 -345 14 -34 23 -86 27 -142 5 -89
5 -89 23 -67 35 43 38 82 16 195 -19 95 -20 114 -9 189 14 100 16 197 2 197
-5 0 -16 -12 -24 -27z"/>
<path d="M3005 3734 c-110 -52 -281 -68 -371 -33 -16 6 -42 12 -58 14 l-28 4
23 -26 c54 -58 179 -77 319 -49 113 23 222 79 205 106 -9 15 -35 11 -90 -16z"/>
<path d="M3895 3751 c16 -28 118 -72 189 -83 123 -19 324 15 398 66 22 16 21
16 -18 16 -22 0 -91 -9 -154 -21 -136 -25 -244 -22 -334 10 -64 23 -91 26 -81
12z"/>
<path d="M4941 3678 c-6 -18 -20 -94 -31 -168 -22 -154 -32 -194 -58 -232 -40
-60 -98 -87 -284 -129 -70 -16 -154 -39 -185 -53 -136 -57 -244 -71 -303 -41
-19 10 -41 37 -60 75 -31 61 -46 73 -56 45 -17 -42 80 -150 178 -199 58 -29
91 -25 245 35 59 22 152 56 206 75 132 46 190 77 249 132 105 98 154 236 138
389 -10 98 -23 121 -39 71z"/>
<path d="M2095 3478 c6 -190 17 -229 81 -289 56 -52 94 -72 266 -142 84 -34
180 -80 213 -102 55 -37 65 -40 130 -40 80 0 155 29 218 85 69 61 45 72 -96
45 -110 -21 -247 -19 -339 4 -178 46 -364 180 -408 295 -5 14 -16 67 -25 118
-8 51 -22 116 -30 143 -14 48 -14 42 -10 -117z"/>
<path d="M4070 3522 c-106 -53 -128 -216 -40 -295 52 -48 96 -60 199 -55 72 3
96 9 132 30 108 64 181 189 153 263 -6 16 -54 45 -74 45 -5 0 -10 -23 -10 -52
0 -114 -37 -174 -128 -208 -114 -43 -242 -18 -276 54 -21 45 -20 63 7 110 25
44 77 76 122 76 36 0 48 -7 64 -38 12 -22 7 -102 -6 -102 -3 0 -13 10 -24 23
l-19 22 -20 -24 c-39 -46 -15 -91 49 -91 60 0 81 30 82 119 1 89 -17 114 -93
130 -66 15 -77 14 -118 -7z"/>
<path d="M2747 3504 c-39 -12 -51 -21 -63 -49 -26 -63 -11 -175 26 -195 24
-13 71 -13 104 0 32 12 36 58 8 83 -24 22 -38 21 -55 -3 -19 -28 -27 -15 -27
46 0 43 4 56 22 68 29 21 81 20 121 0 39 -21 50 -32 71 -71 24 -47 20 -87 -11
-124 -58 -68 -157 -86 -274 -49 -107 33 -145 83 -156 205 -7 84 -18 93 -67 54
-21 -17 -26 -29 -26 -65 0 -89 74 -193 176 -244 43 -22 62 -25 154 -25 90 0
112 3 153 24 62 30 96 76 103 137 8 69 -11 129 -55 177 -35 37 -43 41 -97 44
-34 1 -79 -4 -107 -13z"/>
<path d="M3730 3417 c0 -14 17 -42 40 -67 38 -41 47 -69 34 -104 -5 -13 -23
-16 -88 -16 -75 0 -85 -2 -106 -25 -29 -31 -81 -48 -121 -40 -17 4 -49 23 -70
42 l-39 35 -44 -26 c-25 -14 -52 -26 -61 -26 -19 0 -75 86 -75 116 0 28 16 40
65 49 65 11 90 48 41 61 -55 14 -148 -68 -162 -142 -16 -88 102 -157 185 -108
26 15 29 14 81 -18 69 -43 114 -43 202 0 74 36 82 38 131 17 79 -33 137 -10
137 54 0 47 -22 91 -74 150 -25 28 -46 56 -46 61 0 6 -7 10 -15 10 -9 0 -15
-9 -15 -23z"/>
<path d="M3590 2993 c-34 -15 -96 -14 -201 3 -35 6 -39 4 -78 -49 -37 -50 -47
-57 -113 -79 -39 -12 -73 -28 -75 -34 -6 -19 47 -38 105 -37 31 1 186 4 344 6
247 3 291 6 312 21 35 22 33 44 -6 60 -110 46 -140 61 -155 79 -21 22 -66 47
-85 46 -7 0 -29 -8 -48 -16z m118 -77 c26 -14 56 -31 66 -39 19 -14 19 -15 -3
-22 -13 -4 -125 -8 -250 -9 -124 -1 -232 -5 -239 -10 -22 -14 -12 10 16 36 48
45 96 54 330 66 18 1 54 -9 80 -22z"/>
<path d="M2230 2970 c0 -31 252 -369 364 -488 39 -42 113 -80 236 -121 52 -17
113 -42 135 -56 81 -50 105 -59 116 -48 19 19 -17 69 -83 117 -70 49 -168 100
-273 141 -83 33 -152 81 -191 132 -40 54 -214 251 -263 298 -24 23 -41 33 -41
25z"/>
<path d="M4739 2908 c-34 -40 -96 -118 -137 -173 -75 -102 -159 -195 -175
-195 -5 0 -55 -22 -111 -50 -156 -77 -266 -169 -266 -222 0 -27 16 -22 81 21
33 22 96 54 142 70 158 60 176 73 266 195 161 220 282 409 269 422 -3 3 -34
-28 -69 -68z"/>
<path d="M3282 2733 c-59 -12 -68 -109 -16 -164 42 -43 83 -51 240 -47 155 4
192 15 219 67 16 32 23 116 11 129 -4 4 -71 7 -149 7 -78 0 -173 3 -212 7 -38
3 -80 4 -93 1z m183 -49 c52 -10 102 -13 143 -9 l63 6 -3 -37 c-5 -57 -39 -77
-142 -82 -102 -5 -173 15 -211 59 -28 34 -31 49 -13 67 16 16 67 15 163 -4z"/>
<path d="M3774 2502 c-23 -14 -24 -51 -5 -108 30 -92 32 -111 17 -146 -30 -72
-108 -108 -234 -108 -93 0 -133 10 -195 50 -74 47 -88 77 -80 181 5 81 4 87
-14 93 -34 11 -51 -4 -74 -62 -60 -162 24 -265 243 -298 252 -38 411 13 448
144 35 128 -36 300 -106 254z"/>
</g>
</svg>
