<?xml version="1.0" standalone="no"?>
<!DOCTYPE svg PUBLIC "-//W3C//DTD SVG 20010904//EN"
 "http://www.w3.org/TR/2001/REC-SVG-20010904/DTD/svg10.dtd">
<svg version="1.0" xmlns="http://www.w3.org/2000/svg"
 width="148.000000pt" height="168.000000pt" viewBox="0 0 148.000000 168.000000"
 preserveAspectRatio="xMidYMid meet">

<g transform="translate(0.000000,168.000000) scale(0.100000,-0.100000)"
fill="#000000" stroke="none">
<path d="M398 1449 l-348 -201 0 -199 0 -199 -25 0 c-14 0 -25 -4 -25 -10 0
-5 11 -10 25 -10 l25 0 0 -199 0 -199 350 -202 c237 -137 356 -200 367 -196
10 4 169 95 355 202 l338 196 0 192 c0 132 4 196 12 204 8 8 8 15 0 25 -8 9
-13 81 -14 206 l-3 193 -345 199 c-190 109 -349 199 -355 199 -5 0 -166 -91
-357 -201z m691 -40 l331 -191 0 -378 0 -378 -332 -192 -332 -191 -32 18 c-17
10 -165 95 -327 188 l-296 170 0 385 0 385 322 187 c177 102 325 187 329 187
3 1 155 -85 337 -190z"/>
<path d="M718 1432 c-24 -14 -28 -23 -28 -63 0 -31 -6 -51 -17 -61 -10 -8 -80
-50 -157 -93 l-138 -78 -42 23 c-40 22 -44 22 -74 6 -28 -15 -32 -21 -32 -59
0 -37 4 -45 31 -61 l31 -18 -81 -46 c-45 -25 -81 -48 -81 -52 0 -3 41 -29 90
-58 l90 -53 0 -79 0 -79 -43 -23 c-36 -20 -42 -28 -45 -60 -3 -32 1 -39 33
-61 l36 -24 47 25 47 24 127 -73 128 -74 0 -50 0 -51 56 -32 c32 -18 60 -31
63 -30 3 2 30 16 59 32 l52 29 0 51 0 51 128 74 127 73 47 -25 47 -24 36 24
c32 22 36 29 33 61 -3 32 -9 40 -45 60 l-43 23 0 79 0 79 90 53 c50 29 90 55
90 58 0 3 -34 25 -75 49 -41 23 -75 46 -75 50 0 4 11 14 25 21 21 11 25 21 25
57 0 39 -3 45 -34 60 -32 15 -36 15 -69 -6 -19 -11 -39 -21 -44 -21 -11 0
-274 150 -297 170 -11 8 -16 29 -16 61 0 44 -3 50 -30 64 -36 19 -39 18 -72
-3z m72 -122 c0 -77 -1 -80 -19 -68 -15 9 -23 9 -35 -1 -14 -12 -16 -5 -16 67
0 66 3 83 17 91 11 6 24 6 35 0 15 -8 18 -23 18 -89z m-100 -77 c0 -32 -8 -46
-62 -100 l-62 -63 37 0 c37 0 37 0 37 -40 0 -22 -2 -40 -5 -40 -12 0 -214 125
-209 130 8 8 248 148 257 149 4 1 7 -16 7 -36z m262 -34 c67 -39 127 -74 132
-79 4 -5 -7 -16 -25 -26 -19 -9 -66 -37 -106 -60 -39 -24 -74 -44 -77 -44 -3
0 -6 18 -6 40 0 40 0 40 37 40 l37 0 -62 63 c-54 54 -62 68 -62 100 0 20 2 37
4 37 2 0 60 -32 128 -71z m-144 -42 c23 -23 42 -46 42 -50 0 -17 -37 -4 -65
23 l-31 30 -29 -30 c-26 -27 -65 -41 -65 -23 0 12 83 93 95 93 6 0 30 -19 53
-43z m-481 -32 c19 -13 21 -19 11 -40 -13 -29 -25 -31 -56 -9 -35 24 -27 60
13 63 6 1 20 -6 32 -14z m907 9 c26 -10 19 -49 -9 -62 -36 -16 -40 -15 -53 13
-10 21 -8 27 11 40 24 17 29 18 51 9z m-460 -55 c-8 -14 -34 -11 -34 4 0 8 3
17 7 20 9 9 34 -13 27 -24z m-267 -62 c10 -7 8 -18 -7 -48 -15 -29 -20 -58
-20 -119 0 -44 -3 -80 -6 -80 -8 0 -264 152 -269 160 -2 4 27 24 65 46 49 27
75 49 90 77 l22 38 56 -32 c31 -18 62 -36 69 -42z m658 13 c3 -8 36 -33 75
-54 38 -22 67 -42 65 -46 -5 -8 -261 -160 -269 -160 -3 0 -6 36 -6 80 0 61 -5
90 -20 120 l-20 39 22 14 c13 8 43 26 68 41 l45 26 17 -23 c10 -12 20 -29 23
-37z m-441 8 c14 -19 16 -70 16 -355 0 -289 2 -333 15 -333 13 0 15 44 15 333
0 285 2 336 16 355 8 12 22 22 30 22 12 0 14 -55 14 -372 l0 -373 -38 -21 -37
-22 -37 22 -38 21 0 373 c0 317 2 372 14 372 8 0 22 -10 30 -22z m-124 -70
c36 -21 40 -27 40 -61 l0 -39 -47 27 c-66 38 -68 41 -55 70 14 30 14 30 62 3z
m372 -3 c13 -29 11 -32 -54 -70 l-48 -27 0 39 c0 33 5 41 38 60 47 28 50 28
64 -2z m28 -126 l0 -60 -50 27 c-27 15 -50 30 -50 34 0 5 87 59 98 60 1 0 2
-27 2 -61z m-429 29 c22 -12 39 -24 39 -27 0 -10 -88 -60 -94 -54 -11 11 -6
103 5 103 6 0 29 -10 50 -22z m69 -95 c0 -38 -1 -39 -108 -100 -59 -34 -129
-74 -157 -89 -27 -15 -58 -32 -67 -37 -19 -12 -48 6 -48 29 0 16 218 147 234
141 7 -3 17 3 24 13 8 13 106 79 120 80 1 0 2 -17 2 -37z m345 -37 c12 -12 26
-21 32 -19 17 6 233 -126 233 -141 0 -8 -7 -19 -16 -27 -13 -10 -20 -10 -42 3
-15 9 -54 31 -87 50 -233 128 -235 130 -235 171 l0 39 48 -27 c26 -15 56 -37
67 -49z m-545 6 c0 -8 -80 -55 -85 -50 -5 6 -12 97 -8 102 6 5 93 -44 93 -52z
m716 -49 c-5 -6 -86 40 -86 49 0 3 19 17 43 30 l42 24 3 -49 c2 -27 1 -51 -2
-54z m-516 -128 c0 -69 -2 -125 -4 -125 -12 0 -216 123 -212 128 10 10 201
121 209 121 4 1 7 -55 7 -124z m346 64 c57 -33 104 -62 104 -64 0 -4 -207
-125 -214 -125 -3 0 -6 56 -6 125 0 69 3 125 6 125 3 0 52 -27 110 -61z"/>
</g>
</svg>
